<svg xmlns="http://www.w3.org/2000/svg" viewBox="0 0 750 260.446"><defs><style>.a{fill:#4bbee3;}.b{fill:#009ade;}.c{fill:#007cb2;}.d{fill:#005085;}.e,.f,.g{fill:none;stroke-linecap:round;stroke-linejoin:round;stroke-width:2px;}.e{stroke:#005085;}.f{stroke:#007cb2;}.g{stroke:#009ade;}.h{fill:#f8f8f8;}</style></defs><path class="a" d="M781.1,274.144H-16.19V55.7C3.346,29.1,43.543,20.376,72.347,36.491c23.766,13.3,41.158,41.161,68.373,42.137,21.295.764,42.967-16,62.361-7.167,10.673,4.858,16.836,16.193,26.421,22.948,15.088,10.632,36.364,7.994,52.463-1.032,19.052-10.68,37-30.09,58.354-25.49C357.532,71.6,369.65,90.5,387.258,90.527c17.389.027,29.759-18.474,46.937-21.175,21.72-3.414,40.583,19.348,62.5,17.618,21.589-1.7,34.555-25.7,54.955-32.965,18.042-6.428,37.609,1.368,56.041,6.57S649.186,67,661.105,52c7.31-9.193,22.318-5.587,32.737-.166,5.35,2.783,10.293,6.491,16.068,8.227,11.354,3.415,23.322-1.349,34.682-4.746s25.139-4.928,33.747,3.226Z"/><path class="b" d="M542.71,131.562c-8.935,2.912-16.738,8.455-25.134,12.678s-18.17,7.156-27.142,4.358c-3.331-1.04-6.472-2.848-9.949-3.152-9-.785-15.481,8.323-19.133,16.587s-7.626,17.935-16.288,20.5c-4.594,1.362-9.609.327-14.259,1.483-8.755,2.176-13.684,11.1-19.7,17.821-10.289,11.489-29.563,17.048-41.067,6.776-5.427-4.845-8.207-12.336-14.226-16.423-11.443-7.77-27.395.605-40.665-3.3-15.878-4.669-21.595-24.125-34.095-34.972-12.659-10.986-31.733-12.009-47.545-6.446-7.287,2.564-14.131,6.365-21.586,8.391s-16.021,2.019-22.246-2.556c-5.274-3.878-8-10.337-12.717-14.877-7.9-7.6-20.386-8.643-30.863-5.43s-19.431,9.99-28.141,16.64v117.8l477.237,4.392V142.933C580.5,131.464,560.428,125.787,542.71,131.562Z"/><path class="c" d="M197.6,192.781c4.842,3.049,10.969,3.4,16.6,2.41,14.086-2.475,28.308-12.556,41.406-6.812,11.95,5.242,15.093,20.42,16.729,33.366.442,3.492.946,7.137,2.966,10.02,4.459,6.364,13.931,6.183,21.441,4.186s15.487-5.123,22.766-2.4c5.174,1.934,9.744,6.742,15.188,5.808,1.947-.335,3.717-1.405,5.675-1.665,5.507-.731,9.653,4.917,11.611,10.116s3.555,11.273,8.456,13.89L-17,276.974V72.444A112.633,112.633,0,0,1,44.308,55.532c13.229.251,28.527,4.521,33.361,16.837,2.434,6.2,1.611,13.118,1.911,19.77s2.342,14.056,8.191,17.241c4.88,2.657,10.829,1.554,16.385,1.61s12.168,2.408,13.169,7.873c.5,2.748-.611,5.553-.424,8.341.488,7.281,9.426,11.069,16.667,10.158,8.075-1.015,15.416-2.11,21.463,3.337s9.14,13.42,11.251,21.28c1.563,5.822,3.24,12.487,8.577,15.29,4.451,2.337,10.212,1.169,14.477,3.831C193.861,183.923,196.857,187.5,197.6,192.781Z"/><path class="c" d="M724.021,75.343c-4.954,5.207-6.776,13.259-12.863,17.08-6.653,4.178-15.521,1.431-22.1-2.863s-12.382-10.1-19.866-12.487c-11.392-3.633-25.044,2.668-29.67,13.694-1.921,4.582-2.46,9.8-5.324,13.86-5.065,7.179-15.125,8.085-23.873,8.907-11.043,1.037-22.257,3.086-31.87,8.619S561,137.24,559.936,148.281c-.657,6.829,1.256,13.622,1.724,20.467s-.969,14.554-6.516,18.591c-3.973,2.892-9.243,3.281-14.137,2.838-11.051-1-21.569-5.658-32.649-6.246-18.509-.981-37.017,10.78-43.989,27.953-4.3,10.594-6.063,24.551-16.786,28.519-5.346,1.978-11.273.584-16.971.74a31.639,31.639,0,0,0-28.473,21.319L759.5,272.431V71.091C747.315,68.347,732.632,66.292,724.021,75.343Z"/><path class="d" d="M768.8,268.614,762.4,113.859c-7.792-.225-15.718-.435-23.243,1.6s-14.728,6.692-17.949,13.791c-5.018,11.06-.222,26.745-12.186,33.047a17.751,17.751,0,0,1-4.776,1.636c-10.843,2.185-21.737-.908-32.232-3.975-9.65-2.82-19.627-5.679-29.606-4.456s-20.044,7.633-22.3,17.43c-1.5,6.506.586,13.434-1.87,19.891a11.09,11.09,0,0,1-3.8,5.049c-5.979,4.341-10.368-1.155-15.663-1.377-6.567-.274-10.6,7.33-11.185,13.877s.425,13.671-3.059,19.246c-4.4,7.036-14.331,8.493-22.337,6.314s-14.962-7.091-22.6-10.342-17-4.63-23.839.066c-4.834,3.319-7.428,8.988-11.42,13.284a26.945,26.945,0,0,1-31.014,5.534c-2.192-1.111-4.678-2.569-6.931-1.589-1.411.614-2.265,2.027-3.184,3.261a19.968,19.968,0,0,1-23.467,6.081c-4.846-2.181-9.53-6.469-14.672-5.127-3,.783-5.244,3.38-8.208,4.291-6.948,2.134-13.6-5.655-20.819-4.823-3.137.361-5.825,2.307-8.695,3.624l-.045.02a8.817,8.817,0,0,1-8.112-.513c-27.32-16.155-40.7-3.234-45.585-2.97-5.721.309-11.127,2.564-16.5,4.559-2.126.789-4.373,1.554-6.615,1.217-4.644-.7-7.331-5.633-11.439-7.905-10.337-5.718-24.444,7.117-34.327.647-2.35-1.539-3.96-3.948-5.852-6.025-4.665-5.121-11.87-8.391-18.609-6.787-4.766,1.133-8.658,4.448-12.943,6.823s-9.869,3.739-13.9.958c-3.5-2.41-4.687-7.178-8.064-9.751-7.487-5.706-19.191,2.926-27.418-1.649-6.41-3.565-6.557-12.462-8.74-19.465-4.851-15.558-25.03-24.451-39.617-16.443a14.083,14.083,0,0,1-7.487,1.927c-8.146-.439-7.13-8.369-10.989-12.589-6.349-6.944-19.211,1.013-26.963-4.319-5.095-3.5-5.3-10.909-4.251-17s2.757-12.722-.162-18.173c-3.355-6.265-11.346-8.2-18.432-8.745s-14.791-.531-20.4-4.894c-6.4-4.975-7.91-13.951-12.589-20.568C20.817,97.961,4.35,95.168-6.211,102.694L-6,267.852H368.362a6,6,0,0,0,.565.762Z"/><path class="d" d="M48.152,136.977a36.862,36.862,0,0,1,1.638-8.392,12.377,12.377,0,0,1,5.14-6.64c1.917-1.106,4.152-1.481,6.282-2.08a30.04,30.04,0,0,0,16.9-12.43,15.486,15.486,0,0,0,2.713-7,7.99,7.99,0,0,0-2.567-6.83,8.239,8.239,0,0,0-7.423-1.185A11.538,11.538,0,0,0,62.9,100.9c-.59,2.744-.143,5.624-.668,8.381a12.192,12.192,0,0,1-4.859,7.571A5.225,5.225,0,0,1,54.5,117.98a2.5,2.5,0,0,1-2.452-1.575,3.366,3.366,0,0,1,.471-2.469c1.457-2.793,3.922-4.958,5.381-7.749a12.615,12.615,0,0,0,1.419-6.241c-.062-1.8-.659-3.773-2.231-4.644-1.734-.961-3.949-.182-5.513,1.037a11.3,11.3,0,0,0-4.129,10.408c.411,2.672,1.794,5.38.947,7.948a2.959,2.959,0,0,1-.752,1.263,2.8,2.8,0,0,1-3.739-.367,5.9,5.9,0,0,1-1.38-3.831c-.263-4.43,1.554-8.678,3.041-12.86a52.292,52.292,0,0,0,2.18-7.694,16.309,16.309,0,0,0,.239-5.847,7.8,7.8,0,0,0-2.86-4.979c-2.915-2.143-7.32-1.187-9.847,1.4s-3.469,6.361-3.592,9.976a27.639,27.639,0,0,0,1.324,9.425,63.473,63.473,0,0,0,5.36,11.041c1.988,3.583,3.895,7.287,4.693,11.307s.366,8.447-2.013,11.784c.792.645,2.087.651,3.075.909C45.656,136.623,46.62,136.577,48.152,136.977Z"/><path class="d" d="M713.025,141.4a7.8,7.8,0,0,0-1.431-5.011c-1.148-1.352-3.444-1.842-4.694-.584a4.1,4.1,0,0,0-.913,1.7,11.462,11.462,0,0,0-.389,5.264c.337,2.1,1.262,4.133,1.131,6.257-.1,1.695-1.237,3.549-2.935,3.581a3.139,3.139,0,0,1-2.809-2.3,7.96,7.96,0,0,1,0-3.853c.395-2.182.974-4.326,1.553-6.466,1.528-5.654,3.07-11.346,5.621-16.618a28.869,28.869,0,0,0,2.54-6.043,6.444,6.444,0,0,0-.776-5.243c-1.418-1.908-4.229-2.373-6.466-1.572a11.423,11.423,0,0,0-5.3,4.586,27.507,27.507,0,0,0-4.423,16.187,41.871,41.871,0,0,0,4.192,16.41,4.421,4.421,0,0,1,.628,2.536c-.15.873-1.15,1.638-1.921,1.2a1.812,1.812,0,0,1-.609-.667c-1.59-2.6-1.323-5.871-1.807-8.879a17.283,17.283,0,0,0-1.381-4.514,8.655,8.655,0,0,0-2.276-3.16,4.361,4.361,0,0,0-3.666-.975c-1.77.427-2.915,2.181-3.419,3.931a10.771,10.771,0,0,0,1.063,8.357c2.806,4.749,8.836,6.7,12.071,11.167.482.665.859,1.684.239,2.224a1.48,1.48,0,0,1-1.427.126c-1.957-.649-3.019-2.681-4.249-4.335a15.515,15.515,0,0,0-4.069-3.8c-1.481-.951-3.62-1.571-4.86-.321a2.891,2.891,0,0,0-.456,3.054,6.15,6.15,0,0,0,2.076,2.474,14.772,14.772,0,0,0,5.022,2.525,42.813,42.813,0,0,1,5.186,1.35c1.648.695,5.684,7.09,5.8,8.874l3.087-1.689c-1-4.641-.227-9.994,3.271-13.2,1.121-1.029,2.468-1.793,3.554-2.859C712.282,148.65,713.076,144.909,713.025,141.4Z"/><path class="c" d="M173.366,150.994c.349-2.026.984-4.14,2.542-5.481s4.276-1.487,5.481.178a4.763,4.763,0,0,1,.74,2.108,13.3,13.3,0,0,1-.5,6.1c-.765,2.345-2.19,4.506-2.424,6.961-.187,1.96.777,4.288,2.716,4.63a3.639,3.639,0,0,0,3.632-2.131,9.225,9.225,0,0,0,.7-4.411c-.059-2.57-.335-5.13-.612-7.685-.73-6.75-1.47-13.547-3.441-20.044a33.446,33.446,0,0,1-1.819-7.378,7.471,7.471,0,0,1,1.834-5.864c1.968-1.929,5.271-1.955,7.688-.634a13.242,13.242,0,0,1,5.246,6.208,31.889,31.889,0,0,1,2.146,19.334,48.512,48.512,0,0,1-7.76,18.036,5.134,5.134,0,0,0-1.176,2.791c.015,1.026,1.022,2.083,1.984,1.722a2.1,2.1,0,0,0,.817-.653c2.29-2.689,2.573-6.485,3.671-9.842a20.017,20.017,0,0,1,2.394-4.92,10.017,10.017,0,0,1,3.177-3.208,5.056,5.056,0,0,1,4.374-.457c1.95.808,2.944,3.024,3.207,5.119a12.49,12.49,0,0,1-2.724,9.379c-4.071,4.931-11.327,6.077-15.837,10.61-.672.676-1.288,1.774-.675,2.5a1.717,1.717,0,0,0,1.612.4c2.357-.391,3.94-2.526,5.646-4.2a18.011,18.011,0,0,1,5.345-3.617c1.868-.822,4.429-1.146,5.624.509a3.347,3.347,0,0,1-.029,3.579,7.125,7.125,0,0,1-2.823,2.459,17.113,17.113,0,0,1-6.206,1.985,49.657,49.657,0,0,0-6.183.611c-2.012.5-7.787,7.094-8.244,9.117l-3.231-2.492c1.978-5.135,2.061-11.4-1.365-15.709-1.1-1.38-2.5-2.5-3.555-3.915C172.91,159.429,172.676,155,173.366,150.994Z"/><path class="d" d="M303.168,204.107c-1.335-2.456-3.921-4.434-6.709-4.234a8.154,8.154,0,0,0-5.605,3.51,14.708,14.708,0,0,0-2.651,11.79c.762,3.6,2.854,6.772,3.973,10.276s.968,7.915-1.94,10.168a3.561,3.561,0,0,1-3.94.527,3.814,3.814,0,0,1-1.379-3.612c.117-1.351.589-2.657.661-4.011a6.959,6.959,0,0,0-2.912-5.958c-1.077-.752-2.8-1.054-3.524.045-.546.835-.154,1.939.248,2.851l2.739,6.2a2.6,2.6,0,0,1,.326,1.633,1.694,1.694,0,0,1-1.933,1.084,3.577,3.577,0,0,1-2-1.3C275,229.038,275.859,222.55,272.6,218.3a5.256,5.256,0,0,0-2.6-1.953,2.878,2.878,0,0,0-3.014.812,3.689,3.689,0,0,0-.663,2c-.367,4.187,2.1,8.09,4.858,11.261s5.981,6.083,7.685,9.926a7.867,7.867,0,0,1,.784,4.169,4.1,4.1,0,0,1-2.393,3.322l8.318,3.753a11,11,0,0,1,3.09-10.079,29.786,29.786,0,0,1,4.565-3.217c5.162-3.347,9.644-8.158,11.291-14.085,1.078-3.881.89-7.99.552-12C304.831,209.426,304.5,206.563,303.168,204.107Z"/><path class="e" d="M632.02,168.923c-3.274-1.9-6.6-4.14-8.265-7.538a13.97,13.97,0,0,1-.653-9.532A34.509,34.509,0,0,1,627.12,143c.852-1.447,1.76-2.984,1.708-4.661-.068-2.2-1.759-3.989-3.474-5.369s-3.644-2.686-4.552-4.691c-1.324-2.922-.057-6.352,1.591-9.1s3.735-5.409,4.168-8.587c.583-4.291-1.97-8.3-3.153-12.466-.679-2.388-.915-4.9-1.808-7.218s-2.661-4.517-5.1-4.98"/><path class="e" d="M631.725,168.974a6.077,6.077,0,0,1-4.191-5.964,7.78,7.78,0,0,1,4.045-6.334c2.487-1.4,5.729-1.686,7.507-3.92,1.809-2.274,1.407-5.8,3.346-7.964,2.819-3.149,8.737-1.542,11.454-4.779a6.4,6.4,0,0,0,1.271-2.894,10.835,10.835,0,0,0-1.64-8.112"/><path class="e" d="M626.856,165.341a13.151,13.151,0,0,0-4.542-3.645,7.39,7.39,0,0,0-5.5.426,16.626,16.626,0,0,0-3.759,2.167,36.785,36.785,0,0,1-3.03,2.34,15.165,15.165,0,0,1-5.1,1.726,12.316,12.316,0,0,1-5.583.123,13.763,13.763,0,0,1-3.2-1.508l-3.476-2.021"/><path class="e" d="M622.75,153.534a5.789,5.789,0,0,0-1.974-3.031c-1.659-1.336-3.776-1.931-5.7-2.855-2.276-1.095-4.442-2.878-5.013-5.338-.584-2.515.606-5.242-.2-7.694-.712-2.155-2.825-3.564-4.986-4.258s-4.46-.836-6.659-1.4a7.691,7.691,0,0,1-4.28-2.423c-1.794-2.3-1.208-5.661-2.393-8.323a8.322,8.322,0,0,0-4.083-3.962,16.093,16.093,0,0,0-5.617-1.354"/><path class="e" d="M624.661,147.283A3.568,3.568,0,0,1,627,145.312c1-.33,2.071-.411,3.1-.67a9.426,9.426,0,0,0,6.893-8.025,27.218,27.218,0,0,1,.286-3.913,7.837,7.837,0,0,1,1.678-3.072,13.8,13.8,0,0,1,7.739-4.651c2.258-.469,4.6-.361,6.877-.695s4.648-1.225,5.938-3.136a7.117,7.117,0,0,0,1.026-2.623c.813-4.16-1.09-8.519-4.114-11.489"/><path class="e" d="M622.634,158.547a5.51,5.51,0,0,0-3.041-2.751,12.541,12.541,0,0,0-4.116-.754,14.436,14.436,0,0,0-5.016.462c-1.694.529-3.193,1.541-4.833,2.218a12.987,12.987,0,0,1-6.342.9c-2.312-.254-4.753-1.337-5.678-3.471-.675-1.556-.415-3.332-.334-5.027a8.244,8.244,0,0,0-.738-4.351,8.519,8.519,0,0,0-3.111-2.935,11.96,11.96,0,0,0-7.273-2.217"/><path class="e" d="M641.649,126.978a7.067,7.067,0,0,0,1.326-2.728,7.823,7.823,0,0,0-.259-5.47c-.833-1.7-2.452-2.852-3.952-4.01-2.211-1.708-4.383-3.712-5.253-6.367a12.947,12.947,0,0,1-.525-3.846c-.055-3.524.547-7.263,2.838-9.941"/><path class="e" d="M646.489,124.9a6.04,6.04,0,0,0,2.663-1.839,8.127,8.127,0,0,0,2.288-5.119c.076-2.954-1.936-5.5-2.922-8.286a12.521,12.521,0,0,1,2.118-11.931"/><path class="e" d="M619.66,124.493a17.236,17.236,0,0,1-4.725-.393,12,12,0,0,1-4.117-1.255,10.251,10.251,0,0,1-2.119-1.811,9.742,9.742,0,0,1-2.2-3.164c-.829-2.2-.224-4.714-.888-6.969a8.568,8.568,0,0,0-1.708-3.02,12.978,12.978,0,0,0-8.3-4.5"/><path class="e" d="M595.841,157.773c-2.253,1.083-4.727,2.1-7.185,1.638-2.4-.448-4.328-2.23-5.8-4.173a6.134,6.134,0,0,0-2.36-2.265"/><path class="e" d="M614.63,147.745a34.355,34.355,0,0,1-5.566,1.9,9.838,9.838,0,0,1-3.48.373c-2.121-.245-3.912-1.627-5.581-2.957"/><path class="e" d="M610.083,143.186a12.826,12.826,0,0,1-9.118-3.913c-.853-.893-1.576-1.91-2.5-2.727a11.708,11.708,0,0,0-6.424-2.527c-2.321-.276-4.67-.167-7-.308"/><path class="e" d="M599.831,129.465a7.886,7.886,0,0,0,2.069-9.088,19.514,19.514,0,0,0-3.8-4.8c-1.393-1.5-2.712-3.254-2.9-5.3"/><path class="e" d="M619.005,148.869c1-1.861,1.468-4.286.231-6a13.95,13.95,0,0,0-2.688-2.253,10.035,10.035,0,0,1-3.077-5.015,25.6,25.6,0,0,1-.8-5.906"/><path class="e" d="M617.3,128.883a26.185,26.185,0,0,1,1.659,4.173,7.059,7.059,0,0,1,.38,3.213,4.155,4.155,0,0,1-2.936,3.226"/><path class="e" d="M593.152,126.383a14.222,14.222,0,0,1-3.677.716,4.794,4.794,0,0,1-3.454-1.21c-.895-.884-1.26-2.17-2.015-3.176a5.012,5.012,0,0,0-4.2-1.961"/><path class="e" d="M606.592,116.218a4.436,4.436,0,0,0,2.885-2.024,6.678,6.678,0,0,0,1.567-4.962c-.276-1.584-1.392-2.864-2.213-4.246a12.369,12.369,0,0,1-1.661-5"/><path class="e" d="M621.4,120.205c-2.466-1.181-5-2.469-6.675-4.63"/><path class="e" d="M624.366,114.96a7.74,7.74,0,0,1-6.164-4.134,10.776,10.776,0,0,1-.8-7.542,42.982,42.982,0,0,0,1.367-5.163c.194-1.773-.351-3.8-1.911-4.667"/><path class="e" d="M612.61,95.793l.63,2.684a20.186,20.186,0,0,0,.982,3.316,10.107,10.107,0,0,0,2.336,3.364"/><path class="e" d="M627.993,135.088a4.362,4.362,0,0,0,3.249-2.79,5.251,5.251,0,0,0-.419-4.327c-1.062-1.878-3.138-3.115-3.859-5.149-.777-2.192.254-4.571,1.264-6.666"/><path class="e" d="M633.943,116.263a8.489,8.489,0,0,1-3.443,10.312"/><path class="e" d="M648.478,142.363a8.735,8.735,0,0,0,.375-10.843"/><path class="e" d="M632.794,155.56a9.033,9.033,0,0,1-.69-6.258"/><path class="e" d="M649.3,112.053a4.968,4.968,0,0,1-3.322-.229,9.046,9.046,0,0,1-4.022-3.031,13.621,13.621,0,0,1-2.239-8.2"/><path class="e" d="M647.513,104.669a12.3,12.3,0,0,1-3.67-5.936"/><path class="e" d="M660.562,116.221a7.908,7.908,0,0,1-5.444-2.407"/><path class="e" d="M642.229,144.74a5.048,5.048,0,0,0-.592-3.659,13.417,13.417,0,0,1-.968-1.559,3.834,3.834,0,0,1-.094-2.442,11.332,11.332,0,0,1,.96-2.29"/><path class="e" d="M585.231,157.618a7.386,7.386,0,0,0,.246-8.726"/><path class="e" d="M606.071,167.907a21.661,21.661,0,0,0-7.145-4.588"/><path class="e" d="M632.812,103.66c-1.922-.594-3.223-2.385-4.08-4.2A18.649,18.649,0,0,1,627,92.824"/><path class="e" d="M604.549,109a8.066,8.066,0,0,1-3.382.012,16.184,16.184,0,0,1-1.655-.476"/><path class="e" d="M608.455,133.666a1.651,1.651,0,0,1-1.01.652,19.962,19.962,0,0,1-5.983.959"/><path class="e" d="M598.15,136.735a20.529,20.529,0,0,1-2.653,2.016,6.907,6.907,0,0,1-3.13,1.059c-.5.028-1.106.031-1.376.457"/><path class="e" d="M608.4,155.458a5.455,5.455,0,0,0-3.485-.777,14.739,14.739,0,0,1-3.63-.024,6.1,6.1,0,0,1-2.11-.914,7.522,7.522,0,0,1-2.518-2.823"/><path class="e" d="M606.31,149.452a4.17,4.17,0,0,0,.583-2.958"/><path class="f" d="M111.583,119.844c2.771-1.661,5.577-3.614,6.96-6.534a11.911,11.911,0,0,0,.44-8.142,29.456,29.456,0,0,0-3.537-7.506,7.7,7.7,0,0,1-1.515-3.956c.031-1.879,1.452-3.425,2.9-4.625s3.077-2.336,3.827-4.058c1.094-2.51-.029-5.421-1.47-7.749s-3.253-4.569-3.661-7.276c-.551-3.654,1.578-7.108,2.537-10.677.549-2.046.72-4.194,1.454-6.181s2.215-3.888,4.29-4.313"/><path class="f" d="M111.836,119.884a5.188,5.188,0,0,0,3.5-5.141,6.641,6.641,0,0,0-3.529-5.355c-2.14-1.165-4.91-1.368-6.455-3.253-1.572-1.918-1.272-4.931-2.953-6.754-2.444-2.652-7.474-1.209-9.833-3.938a5.47,5.47,0,0,1-1.12-2.453,9.25,9.25,0,0,1,1.3-6.943"/><path class="f" d="M115.946,116.724a11.228,11.228,0,0,1,3.831-3.167,6.307,6.307,0,0,1,4.7.3,14.16,14.16,0,0,1,3.234,1.8,31.665,31.665,0,0,0,2.614,1.959,12.949,12.949,0,0,0,4.369,1.41,10.528,10.528,0,0,0,4.766.037,11.765,11.765,0,0,0,2.713-1.327l2.942-1.767"/><path class="f" d="M119.305,106.6a4.937,4.937,0,0,1,1.647-2.611c1.4-1.161,3.2-1.695,4.826-2.507,1.929-.962,3.755-2.51,4.212-4.616.467-2.154-.582-4.466.079-6.568a6.285,6.285,0,0,1,4.2-3.695c1.835-.618,3.8-.768,5.665-1.274a6.564,6.564,0,0,0,3.623-2.121c1.5-1.981.96-4.845,1.939-7.13a7.094,7.094,0,0,1,3.436-3.432,13.706,13.706,0,0,1,4.776-1.224"/><path class="f" d="M117.6,101.288a3.039,3.039,0,0,0-2.022-1.653c-.86-.27-1.772-.326-2.65-.534a8.043,8.043,0,0,1-5.981-6.763A23.09,23.09,0,0,0,106.652,89a6.691,6.691,0,0,0-1.469-2.6,11.784,11.784,0,0,0-6.662-3.874c-1.932-.372-3.926-.252-5.876-.508a7.205,7.205,0,0,1-5.106-2.6,6.065,6.065,0,0,1-.907-2.226c-.746-3.54.824-7.283,3.369-9.854"/><path class="f" d="M119.465,110.875a4.7,4.7,0,0,1,2.561-2.385,10.7,10.7,0,0,1,3.5-.694,12.315,12.315,0,0,1,4.285.332c1.452.43,2.744,1.276,4.152,1.833a11.087,11.087,0,0,0,5.422.69c1.97-.246,4.04-1.2,4.8-3.032a9.576,9.576,0,0,0,.223-4.294,7.03,7.03,0,0,1,.577-3.722,7.271,7.271,0,0,1,2.617-2.543,10.212,10.212,0,0,1,6.18-1.981"/><path class="f" d="M102.851,84.17a6.031,6.031,0,0,1-1.165-2.312,6.68,6.68,0,0,1,.153-4.671,10.677,10.677,0,0,1,3.323-3.47c1.867-1.484,3.695-3.221,4.4-5.5a11.09,11.09,0,0,0,.4-3.288c0-3.007-.557-6.191-2.544-8.448"/><path class="f" d="M98.7,82.457A5.15,5.15,0,0,1,96.4,80.921a6.938,6.938,0,0,1-2.016-4.341c-.1-2.519,1.584-4.717,2.391-7.106a10.686,10.686,0,0,0-1.953-10.155"/><path class="f" d="M121.584,81.779a14.7,14.7,0,0,0,4.027-.393,10.257,10.257,0,0,0,3.5-1.122,8.75,8.75,0,0,0,1.786-1.571,8.321,8.321,0,0,0,1.842-2.728c.68-1.888.132-4.025.672-5.957a7.3,7.3,0,0,1,1.42-2.6,11.071,11.071,0,0,1,7.031-3.946"/><path class="f" d="M142.319,109.885c1.936.9,4.059,1.73,6.151,1.309a8.569,8.569,0,0,0,4.9-3.632,5.243,5.243,0,0,1,1.985-1.963"/><path class="f" d="M126.162,101.559a29.324,29.324,0,0,0,4.773,1.551,8.421,8.421,0,0,0,2.975.275c1.806-.235,3.317-1.436,4.726-2.592"/><path class="f" d="M129.986,97.612a10.946,10.946,0,0,0,7.733-3.451c.716-.772,1.321-1.649,2.1-2.357a9.984,9.984,0,0,1,5.451-2.236c1.977-.264,3.982-.2,5.971-.349"/><path class="f" d="M138.565,85.778a6.732,6.732,0,0,1-1.877-7.729,16.629,16.629,0,0,1,3.184-4.142,8.092,8.092,0,0,0,2.41-4.556"/><path class="f" d="M122.443,102.571c-.873-1.575-1.306-3.639-.271-5.112a11.916,11.916,0,0,1,2.266-1.956A8.562,8.562,0,0,0,127,91.186a21.886,21.886,0,0,0,.607-5.05"/><path class="f" d="M123.647,85.5a22.559,22.559,0,0,0-1.364,3.582A6.032,6.032,0,0,0,122,91.824a3.545,3.545,0,0,0,2.545,2.716"/><path class="f" d="M144.227,83.066a12.123,12.123,0,0,0,3.147.565,4.089,4.089,0,0,0,2.932-1.075,21.828,21.828,0,0,0,1.68-2.735,4.277,4.277,0,0,1,3.558-1.724"/><path class="f" d="M132.634,74.557a3.789,3.789,0,0,1-2.487-1.691,5.707,5.707,0,0,1-1.4-4.216c.216-1.354,1.153-2.461,1.837-3.65a10.56,10.56,0,0,0,1.355-4.286"/><path class="f" d="M120.048,78.142c2.089-1.039,4.237-2.169,5.639-4.034"/><path class="f" d="M117.451,73.7a6.6,6.6,0,0,0,5.209-3.6,9.2,9.2,0,0,0,.589-6.446,36.579,36.579,0,0,1-1.23-4.389,3.99,3.99,0,0,1,1.574-4.006"/><path class="f" d="M127.247,57.2l-.5,2.3a17.363,17.363,0,0,1-.8,2.842,8.627,8.627,0,0,1-1.953,2.9"/><path class="f" d="M114.6,90.922a3.72,3.72,0,0,1-2.807-2.34,4.488,4.488,0,0,1,.3-3.7c.883-1.616,2.64-2.7,3.23-4.441.636-1.88-.273-3.9-1.16-5.672"/><path class="f" d="M109.3,74.931a7.247,7.247,0,0,0,3.065,8.758"/><path class="f" d="M97.213,97.382a7.458,7.458,0,0,1-.454-9.248"/><path class="f" d="M110.759,108.451a7.715,7.715,0,0,0,.512-5.349"/><path class="f" d="M96.141,71.528a4.236,4.236,0,0,0,2.832-.236,7.717,7.717,0,0,0,3.395-2.635,11.623,11.623,0,0,0,1.81-7.029"/><path class="f" d="M97.573,65.205a10.5,10.5,0,0,0,3.059-5.11"/><path class="f" d="M86.58,75.223A6.745,6.745,0,0,0,91.2,73.1"/><path class="f" d="M102.574,99.334a4.313,4.313,0,0,1,.461-3.13,11.471,11.471,0,0,0,.807-1.342,3.282,3.282,0,0,0,.05-2.085,9.787,9.787,0,0,0-.847-1.943"/><path class="f" d="M151.371,109.622a6.3,6.3,0,0,1-.318-7.443"/><path class="f" d="M133.714,118.658a18.47,18.47,0,0,1,6.04-4"/><path class="f" d="M110.105,64.163a6.289,6.289,0,0,0,3.43-3.638,15.9,15.9,0,0,0,1.393-5.679"/><path class="f" d="M134.288,68.369a6.882,6.882,0,0,0,2.886-.031,13.8,13.8,0,0,0,1.406-.427"/><path class="f" d="M131.258,89.469a1.412,1.412,0,0,0,.87.544,17.064,17.064,0,0,0,5.118.744"/><path class="f" d="M140.089,91.961a17.739,17.739,0,0,0,2.289,1.688,5.912,5.912,0,0,0,2.684.865c.43.018.944.013,1.18.373"/><path class="f" d="M131.573,108.063a4.662,4.662,0,0,1,2.965-.706,12.568,12.568,0,0,0,3.1-.064,5.221,5.221,0,0,0,1.789-.806,6.418,6.418,0,0,0,2.114-2.44"/><path class="f" d="M133.283,102.913a3.558,3.558,0,0,1-.534-2.517"/><path class="g" d="M391.608,218.349a24.952,24.952,0,0,1-4.128-7.094,10.787,10.787,0,0,1-.832-5.372c.871-5.7,8.364-8.547,9.3-14.242.43-2.622-.688-5.271-2.194-7.46-3.163-4.6-8.116-7.952-10.367-13.059a15.472,15.472,0,0,1-.324-11.323,17.52,17.52,0,0,1,7.2-8.824"/><path class="g" d="M390.277,215.9a5.432,5.432,0,0,1,.144-8.351,13.346,13.346,0,0,1,4.223-1.871,30.025,30.025,0,0,0,5.752-2.651,8.478,8.478,0,0,0,3.03-2.665,7.8,7.8,0,0,0,.741-5.08,51.516,51.516,0,0,1-.745-5.178,10.891,10.891,0,0,1,5.927-9.826"/><path class="g" d="M389.514,216.6c-1.206-1.929-3.085-3.323-4.609-5.013a16.823,16.823,0,0,1-4.086-8.527c-.379-2.352-.271-4.842-1.283-7a11.082,11.082,0,0,0-5.344-4.866,22.585,22.585,0,0,0-8.8-2.316"/><path class="g" d="M393.452,196.419c.558-2.561-.8-5.249-2.82-6.925a17.892,17.892,0,0,0-7.127-3.166,37.954,37.954,0,0,1-7.5-2.329,12.114,12.114,0,0,1-4.684-3.951c-2.151-3.163-2.352-7.216-2.481-11.038"/><path class="g" d="M389.311,178.993a6.956,6.956,0,0,1-.953-4.879,5.535,5.535,0,0,1,2.591-3.576,12.08,12.08,0,0,1,2.85-1.041,25.2,25.2,0,0,0,6.276-2.536,11.8,11.8,0,0,0,4.624-4.842c1.077-2.249,1.2-4.816,1.7-7.26"/><path class="g" d="M366.319,195.975c.824,1.848,2.743,2.942,4.621,3.695,2.868,1.15,6.175,1.787,9.007.55"/><path class="g" d="M382.466,207.3a3.917,3.917,0,0,1,.133-3.37,19.746,19.746,0,0,1,1.913-2.915,10.454,10.454,0,0,0,2-4.855,5.6,5.6,0,0,0-1.737-4.8"/><path class="g" d="M379.99,184.908a17.72,17.72,0,0,1-3.318-7.028,11.156,11.156,0,0,1,1.037-7.6"/><path class="g" d="M396.519,168.626a10.141,10.141,0,0,1-.345-13.731"/><path class="g" d="M403.816,164.2c1.844.5,3.786-.405,5.3-1.572a15.381,15.381,0,0,0,3.351-3.574"/><path class="g" d="M381.841,164.309a12.927,12.927,0,0,1-2.348-16.213"/><path class="g" d="M395.186,205.083a4.941,4.941,0,0,1,.321-3.775,10.043,10.043,0,0,1,2.427-3.011"/><path class="g" d="M395.963,188.847a3.852,3.852,0,0,0,.564-2.713,24.872,24.872,0,0,1-.309-2.818,7.369,7.369,0,0,1,1.115-3.5,6.09,6.09,0,0,1,1.751-2.029,9.137,9.137,0,0,1,3.109-1.095c4.22-1,8.5-3.006,10.727-6.725"/><path class="g" d="M404.488,196.775a13.649,13.649,0,0,0,8.846-9.962"/><path class="g" d="M371.431,180.928a7.126,7.126,0,0,1-5.517-1.97,14.665,14.665,0,0,1-3.346-4.98"/><path class="g" d="M372.88,200.294a4.6,4.6,0,0,0-.271-2.778,11.238,11.238,0,0,0-1.443-2.434"/><path class="g" d="M402.391,176.164a5.335,5.335,0,0,1,.139-6.318"/><path class="g" d="M382.859,168.619a5.81,5.81,0,0,0,3.158-.795,9.307,9.307,0,0,0,3.425-4.259"/><path class="g" d="M394.169,160.727a10,10,0,0,0,3.825-.407,5.723,5.723,0,0,0,3.042-2.27"/><path class="g" d="M381.758,179.51a6.9,6.9,0,0,0,8.944,1.747"/><path class="g" d="M403.128,187.589a7.627,7.627,0,0,1-2.682-5.719"/><path class="g" d="M375.865,191.6a6.75,6.75,0,0,0-5.062-6.116"/><path class="d" d="M152.5,178.572c.278-2.468-6.864-5.3-15.951-6.324s-16.68.148-16.958,2.617a1.54,1.54,0,0,0,.277,1c.661,1.84,2.814,5.828,9.5,8.562a4.685,4.685,0,0,1,2.865,3.646l.807,5.489,1.095.123,1.095.124,2.008-5.172a4.684,4.684,0,0,1,3.6-2.917c7.127-1.178,10.113-4.587,11.166-6.234A1.544,1.544,0,0,0,152.5,178.572Z"/><path class="e" d="M120.625,176.211a10.39,10.39,0,0,1,.171-10.988c1.834-2.753,5.006-4.62,6.1-7.741.746-2.13.379-4.469,0-6.694"/><path class="e" d="M151.135,179.649a10.393,10.393,0,0,0,2.278-10.751c-1.175-3.092-3.852-5.618-4.224-8.905-.254-2.242.624-4.44,1.486-6.526"/><path class="e" d="M124.3,174.625a14.326,14.326,0,0,1-1.207-3.563,5.755,5.755,0,0,1,.5-3.67c.874-1.6,2.62-2.483,3.925-3.753A8.5,8.5,0,0,0,130,158.723"/><path class="e" d="M129.642,174.814c-.751-1.7-1.513-3.621-.886-5.375.55-1.542,2.023-2.52,3.15-3.707a9.851,9.851,0,0,0,1.922-2.93c1.237-2.915,1-6.217.744-9.373"/><path class="e" d="M147.737,177.266a14.329,14.329,0,0,0,1.969-3.206,5.751,5.751,0,0,0,.328-3.689c-.5-1.753-2-3-2.992-4.532a8.511,8.511,0,0,1-1.322-5.344"/><path class="e" d="M142.486,176.261c1.111-1.5,2.28-3.193,2.06-5.043-.194-1.626-1.412-2.907-2.247-4.315a9.862,9.862,0,0,1-1.222-3.284c-.558-3.117.407-6.284,1.36-9.3"/><path class="e" d="M137.63,157.449a16.336,16.336,0,0,1-.27,6.533c-.423,1.309-1.169,2.489-1.672,3.769a10.845,10.845,0,0,0-.318,6.92"/><path class="b" d="M500.447,133.461c-.524-2.429,6.3-5.962,15.236-7.892s16.611-1.526,17.135.9a1.536,1.536,0,0,1-.176,1.02c-.473,1.9-2.214,6.081-8.592,9.472a4.68,4.68,0,0,0-2.484,3.914l-.253,5.542-1.078.233-1.077.232-2.516-4.943a4.68,4.68,0,0,0-3.879-2.541c-7.208-.458-10.521-3.551-11.734-5.083A1.548,1.548,0,0,1,500.447,133.461Z"/><path class="g" d="M531.92,127.916A10.394,10.394,0,0,0,530.648,117c-2.1-2.555-5.444-4.095-6.846-7.091-.956-2.043-.825-4.408-.675-6.659"/><path class="g" d="M501.908,134.4a10.4,10.4,0,0,1-3.345-10.469c.86-3.194,3.27-5.976,3.31-9.283.028-2.257-1.066-4.356-2.132-6.345"/><path class="g" d="M528.105,126.706a14.362,14.362,0,0,0,.844-3.666,5.765,5.765,0,0,0-.867-3.6c-1.03-1.5-2.855-2.207-4.282-3.34a8.512,8.512,0,0,1-2.959-4.642"/><path class="g" d="M522.808,127.429c.576-1.771,1.142-3.753.343-5.436-.7-1.479-2.266-2.3-3.507-3.373a9.851,9.851,0,0,1-2.205-2.722c-1.524-2.776-1.62-6.085-1.681-9.251"/><path class="g" d="M505.05,131.683a14.34,14.34,0,0,1-2.281-2.991,5.755,5.755,0,0,1-.7-3.638c.318-1.794,1.69-3.189,2.522-4.809a8.5,8.5,0,0,0,.78-5.45"/><path class="g" d="M510.174,130.157c-1.256-1.376-2.589-2.948-2.555-4.81.03-1.638,1.113-3.034,1.8-4.519a9.855,9.855,0,0,0,.887-3.39c.242-3.158-1.035-6.212-2.287-9.121"/><path class="g" d="M513.119,110.954a16.312,16.312,0,0,0,.924,6.472c.551,1.26,1.413,2.36,2.041,3.583a10.838,10.838,0,0,1,1.01,6.852"/><path class="d" d="M462.791,238.962c-.17-2.479-7.7-3.983-16.827-3.361s-16.383,3.137-16.213,5.616a1.545,1.545,0,0,0,.451.932c.981,1.691,3.813,5.229,10.881,6.719a4.683,4.683,0,0,1,3.472,3.073l1.779,5.255,1.1-.075,1.1-.075,1.049-5.447a4.68,4.68,0,0,1,3.022-3.517c6.8-2.437,9.125-6.327,9.867-8.135A1.552,1.552,0,0,0,462.791,238.962Z"/><path class="e" d="M431.014,242.356a10.39,10.39,0,0,1-1.8-10.841c1.31-3.037,4.1-5.443,4.612-8.71.352-2.229-.428-4.464-1.2-6.586"/><path class="e" d="M461.646,240.265a10.392,10.392,0,0,0,.313-10.985c-1.711-2.831-4.8-4.836-5.753-8-.652-2.16-.182-4.48.291-6.687"/><path class="e" d="M434.344,240.136a14.3,14.3,0,0,1-1.826-3.289,5.749,5.749,0,0,1-.165-3.7c.572-1.728,2.131-2.912,3.188-4.395a8.5,8.5,0,0,0,1.556-5.281"/><path class="e" d="M439.634,239.363c-1.044-1.542-2.138-3.29-1.836-5.128.266-1.616,1.539-2.842,2.435-4.212A9.876,9.876,0,0,0,441.6,226.8c.695-3.09-.13-6.3-.949-9.355"/><path class="e" d="M457.876,238.53a14.371,14.371,0,0,0,1.362-3.507,5.756,5.756,0,0,0-.339-3.688c-.8-1.635-2.508-2.6-3.756-3.922a8.506,8.506,0,0,1-2.26-5.02"/><path class="e" d="M452.53,238.483c.825-1.67,1.67-3.55,1.121-5.33-.482-1.565-1.91-2.607-2.984-3.842a9.884,9.884,0,0,1-1.791-3.012c-1.108-2.967-.727-6.255-.33-9.4"/><path class="e" d="M444.378,220.848a16.316,16.316,0,0,1,.906,6.475c-.181,1.364-.7,2.659-.968,4.008a10.835,10.835,0,0,0,.928,6.864"/><path class="c" d="M743.161,55.17c-.474-2.532-8.415-3.168-17.735-1.42s-16.49,5.216-16.016,7.749a1.6,1.6,0,0,0,.578.9c1.215,1.623,4.561,4.923,12.02,5.6a4.854,4.854,0,0,1,3.948,2.744l2.469,5.195,1.123-.21,1.123-.211.419-5.737a4.857,4.857,0,0,1,2.686-3.988c6.707-3.334,8.63-7.622,9.174-9.574A1.6,1.6,0,0,0,743.161,55.17Z"/><path class="f" d="M740.75,58.878a30.375,30.375,0,0,0,1.926-11.9,90.777,90.777,0,0,0-1.3-12.06"/><path class="f" d="M713.027,64.076a30.363,30.363,0,0,1-6.107-10.4,90.8,90.8,0,0,1-3.162-11.71"/><path class="f" d="M714.9,60.807a37.73,37.73,0,0,1-5.681-12.092"/><path class="f" d="M718.447,60.077a97.621,97.621,0,0,1-6.233-21.735"/><path class="f" d="M722.244,56.815a35.908,35.908,0,0,1-2.556-10.871"/><path class="f" d="M736.923,56.678a37.756,37.756,0,0,0,.915-13.33"/><path class="f" d="M733.35,57.283a97.53,97.53,0,0,0-2.064-22.517"/><path class="f" d="M728.629,55.618a35.894,35.894,0,0,0-1.555-11.059"/><path class="f" d="M725.14,56.044c-.341-7.518-3-14.816-3.051-22.341"/><path class="c" d="M17.054,42.825c-.013-2.576,7.663-4.705,17.145-4.754s17.18,2,17.194,4.575a1.6,1.6,0,0,1-.4,1c-.885,1.823-3.545,5.7-10.741,7.776A4.853,4.853,0,0,0,36.9,54.861l-1.44,5.57-1.142.006-1.143.006-1.5-5.554a4.854,4.854,0,0,0-3.393-3.407c-7.216-2-9.917-5.849-10.821-7.663A1.6,1.6,0,0,1,17.054,42.825Z"/><path class="f" d="M20.124,46.009a30.351,30.351,0,0,1-4.145-11.322A90.769,90.769,0,0,1,14.966,22.6"/><path class="f" d="M48.329,45.862A30.357,30.357,0,0,0,52.357,34.5a90.858,90.858,0,0,0,.887-12.1"/><path class="f" d="M45.874,43.007a37.753,37.753,0,0,0,3.287-12.95"/><path class="f" d="M42.25,42.962a97.61,97.61,0,0,0,2-22.523"/><path class="f" d="M37.9,40.478a35.9,35.9,0,0,0,.451-11.158"/><path class="f" d="M23.465,43.123a37.74,37.74,0,0,1-3.423-12.914"/><path class="f" d="M27.087,43.041a97.633,97.633,0,0,1-2.238-22.5"/><path class="f" d="M31.408,40.512a35.886,35.886,0,0,1-.568-11.153"/><path class="f" d="M34.915,40.27c-1.089-7.447.138-15.116-1.236-22.515"/><path class="d" d="M225.555,252.3a30.113,30.113,0,0,1-7.3-10.51,28.616,28.616,0,0,1-1.763-6.374,23.944,23.944,0,0,1-.041-6.727,33.944,33.944,0,0,1,4.347-12.541,122.576,122.576,0,0,1,6.951-10.722c1.2-1.7,2.356-3.4,3.455-5.113.565-.85,1.064-1.718,1.6-2.576.474-.876.985-1.743,1.429-2.627a38.788,38.788,0,0,0,2.29-5.439c.288-.94.585-1.886.8-2.851l.346-1.448.261-1.468a42.3,42.3,0,0,0-3.257-23.927,35.3,35.3,0,0,1,7.133,24.374,36.026,36.026,0,0,1-3.305,12.824,73.159,73.159,0,0,1-6.651,11.1c-2.417,3.463-4.879,6.788-6.956,10.231a35.093,35.093,0,0,0-4.61,10.808,25.134,25.134,0,0,0,.288,11.708A37.622,37.622,0,0,0,225.555,252.3Z"/><path class="d" d="M227.012,251.865a32.615,32.615,0,0,1-14.128-16.719,28.675,28.675,0,0,1-1.864-11.36,28.264,28.264,0,0,1,.841-5.785,46.928,46.928,0,0,1,1.775-5.383c1.365-3.443,2.916-6.645,4.117-9.844a38.906,38.906,0,0,0,2.335-9.853,36.649,36.649,0,0,0-3.591-20.309,26.75,26.75,0,0,1,5.652,9.423,33.555,33.555,0,0,1,1.866,11.079,36.665,36.665,0,0,1-1.781,11.211c-1.155,3.587-2.684,6.886-3.946,10.122a33.247,33.247,0,0,0-2.547,9.64,28.466,28.466,0,0,0,.875,9.868A41.19,41.19,0,0,0,227.012,251.865Z"/><path class="d" d="M224.707,251.279a28.5,28.5,0,0,1-5.418-9.295,16.3,16.3,0,0,1-.6-5.684,19.954,19.954,0,0,1,1.264-5.579,31.437,31.437,0,0,1,5.92-9.437c2.383-2.75,4.95-5.161,7.292-7.62a75.156,75.156,0,0,0,12.222-16.043,42.389,42.389,0,0,0,5.361-19.529,28.2,28.2,0,0,1,.881,10.658,38.394,38.394,0,0,1-2.685,10.547,57.94,57.94,0,0,1-12.176,17.831c-4.973,5.151-10.345,9.382-13.22,15.151a15.92,15.92,0,0,0-1.867,9.2C222.009,244.742,223.447,247.987,224.707,251.279Z"/><path class="d" d="M224.234,250.764a30.065,30.065,0,0,1-12.7-10.552,34.087,34.087,0,0,1-5.963-15.857c-.623-5.563-.364-10.724-2.114-15.222a22.711,22.711,0,0,0-9.864-11.36,18.844,18.844,0,0,1,13.423,9.688,24.9,24.9,0,0,1,2.628,8.293c.436,2.782.591,5.478.893,8.029a40.968,40.968,0,0,0,4.346,14.4A49.024,49.024,0,0,0,224.234,250.764Z"/><path class="d" d="M223.852,249.214a10.161,10.161,0,0,1-2.375-5.249,15.709,15.709,0,0,1-.189-2.937,18.271,18.271,0,0,1,.449-2.923,20.6,20.6,0,0,1,2.118-5.466,24.866,24.866,0,0,1,3.329-4.722,31.65,31.65,0,0,1,8.834-6.963,32.025,32.025,0,0,1,10.435-3.511c-2.88,2.3-5.7,4.4-8.323,6.637a58.924,58.924,0,0,0-7.175,7.073c-.555.613-1.006,1.293-1.528,1.923l-.691,1a12.026,12.026,0,0,0-.667,1.013,25.57,25.57,0,0,0-2.192,4.272c-.312.741-.536,1.5-.783,2.267s-.478,1.568-.659,2.376A21.442,21.442,0,0,0,223.852,249.214Z"/><path class="c" d="M485.205,200.55a49.923,49.923,0,0,1-10.231-5.783,22.2,22.2,0,0,1-7.465-9.778,17.809,17.809,0,0,1-.8-3.175,19.7,19.7,0,0,1-.187-3.228,37.345,37.345,0,0,1,.711-6.091c.741-3.935,1.861-7.653,2.7-11.294a39.4,39.4,0,0,0,1.3-10.715A19.3,19.3,0,0,0,468.2,140.7a24.327,24.327,0,0,0-7.616-7.557,36.609,36.609,0,0,0-10.417-4.458,28.322,28.322,0,0,1,11.567,2.289,24.75,24.75,0,0,1,9.68,7.462,21.739,21.739,0,0,1,3.132,5.507,22.361,22.361,0,0,1,1.426,6.221,38.6,38.6,0,0,1-1.167,12.186c-.922,3.862-2.089,7.517-2.941,11.126a40.148,40.148,0,0,0-.95,5.338,14.571,14.571,0,0,0,.341,5.018,21.174,21.174,0,0,0,5.363,9.13A90.541,90.541,0,0,0,485.205,200.55Z"/><path class="c" d="M485.686,200.6a28.611,28.611,0,0,1-7.1-5.384,20.744,20.744,0,0,1-4.851-7.954,16.5,16.5,0,0,1-.072-9.758,33.166,33.166,0,0,1,4.024-8.37c3.159-4.987,6.368-9.32,6.86-14.551a25.143,25.143,0,0,0-3.853-15.843,20.766,20.766,0,0,1,5.682,25.3,68.581,68.581,0,0,1-4.455,7.748c-.75,1.2-1.5,2.384-2.121,3.567a22.5,22.5,0,0,0-1.622,3.562,13.851,13.851,0,0,0-.645,7.378,21.811,21.811,0,0,0,2.987,7.427A50.6,50.6,0,0,0,485.686,200.6Z"/><path class="c" d="M486.741,200.6a22.532,22.532,0,0,1-18.555-6.982,24.761,24.761,0,0,1-5.475-9.024,25.62,25.62,0,0,1-1.178-5.226c-.2-1.752-.23-3.43-.308-5.016a31.374,31.374,0,0,0-.4-4.49,22.58,22.58,0,0,0-1.161-4.219,27.118,27.118,0,0,0-4.505-7.7c-3.857-4.7-9.3-8.182-15.352-10.7a29.7,29.7,0,0,1,18.224,8.016,26.933,26.933,0,0,1,6.02,8.583,25.431,25.431,0,0,1,1.626,5.1,34.561,34.561,0,0,1,.546,5.2c.055,1.661.084,3.235.218,4.716a23.2,23.2,0,0,0,.786,4.305,24.063,24.063,0,0,0,3.936,7.9A25.924,25.924,0,0,0,486.741,200.6Z"/><path class="c" d="M484.85,200.877a14.52,14.52,0,0,1-5.612,1.711,18.039,18.039,0,0,1-6.038-.483,18.593,18.593,0,0,1-5.664-2.542,30.225,30.225,0,0,1-4.46-3.92,22.72,22.72,0,0,0-3.787-3.2,21.99,21.99,0,0,0-4.425-2.258,26.567,26.567,0,0,0-10.525-1.568,16.212,16.212,0,0,1,11.5-2.242,18.708,18.708,0,0,1,5.862,1.982,12.324,12.324,0,0,1,1.353.8,15.762,15.762,0,0,1,1.291.913,25.015,25.015,0,0,1,2.267,2.03,49.284,49.284,0,0,0,3.733,3.646,21.67,21.67,0,0,0,4.171,2.66A25.714,25.714,0,0,0,484.85,200.877Z"/><path class="c" d="M486.162,200.128a10.8,10.8,0,0,1-4.745-3.963,15.254,15.254,0,0,1-2.407-5.981,12.377,12.377,0,0,1-.121-3.443,10.439,10.439,0,0,1,1.017-3.511,15.2,15.2,0,0,1,4.456-5.164,57.565,57.565,0,0,1,5.019-3.274,20.975,20.975,0,0,0,4.127-3.114,15.473,15.473,0,0,0,2.792-4.43c.819-1.715,1.518-3.517,2.22-5.415a19.984,19.984,0,0,1,.144,6.082,14.222,14.222,0,0,1-2.031,6.149,18.384,18.384,0,0,1-4.568,4.638c-1.648,1.236-3.272,2.237-4.645,3.318a13.358,13.358,0,0,0-3.342,3.441,8.482,8.482,0,0,0-1.164,4.392A16.239,16.239,0,0,0,486.162,200.128Z"/><path class="d" d="M367.877,206a16.746,16.746,0,0,0-3.974-5.349c-1.184-1.063-2.521-1.957-3.61-3.117a5.837,5.837,0,0,1-1.813-4.266c.21-2.784,3.132-4.538,4.213-7.113,1.391-3.314-.566-7.072-2.9-9.807s-5.209-5.278-6.088-8.763c-.915-3.63.869-7.789,3.492-10.461-3.013,1.65-6.1,3.357-8.321,5.974s-3.438,6.381-2.133,9.558c1.171,2.851,4.014,4.6,5.99,6.963a6.157,6.157,0,0,1,1.7,4.828c-.5,2.769-3.7,4.275-4.639,6.928-.848,2.406.426,5.08,2.171,6.94s3.963,3.239,5.642,5.16,2.766,4.723,1.67,7.026c-1.266,2.663-4.964,3.731-5.713,6.582-.694,2.64,1.548,5.08,3.676,6.788s4.578,3.746,4.477,6.473c-.118,3.178-3.572,5.056-5.163,7.809a7.2,7.2,0,0,0,6.041,10.794l2.873.468c-2.157-.664-3.318-3.179-3.11-5.426a12.285,12.285,0,0,1,2.831-6.05c1.365-1.8,2.957-3.8,2.663-6.038-.344-2.624-3.077-4.2-4.316-6.542-1.369-2.586-.7-5.906,1.051-8.253,1.368-1.839,3.374-3.3,4.047-5.494A7.961,7.961,0,0,0,367.877,206Z"/><path class="d" d="M346.67,215.31a13.364,13.364,0,0,0-4.8-3.072,28.315,28.315,0,0,1-3.914-1.442c-1.19-.676-2.375-1.484-2.557-2.913-.32-2.509,1.932-4.019,2.611-6.285.874-2.916-.721-5.309-2.516-7.668s-3.722-4.35-3.928-7.66a11.687,11.687,0,0,1,3.719-8.841c-2.745,1.328-5.523,2.375-7.72,4.664s-3.569,5.322-2.724,8.443c.758,2.8,3.011,4.317,4.517,6.574a6.01,6.01,0,0,1,1.3,4.141c-.291,2.517-2.74,4.3-2.95,6.818s1.375,4.272,3.38,5.484,4.262,1.716,6.326,2.821a5.953,5.953,0,0,1,3.491,5.408c-.133,2.75-2.7,4.845-2.043,7.6s3.259,3.523,5.7,3.934,5.374.149,7.277,1.856c2.219,1.99,1.835,4.847,3.2,7.417a6.881,6.881,0,0,0,5.174,3.951c2.411.283,4.059-.684,5.769-2.351.5-.49,1.275-1.317,1.84-1.822-1.913,1.122-3.689.478-5.3-.787a10.486,10.486,0,0,1-3.15-4.78c-.684-1.783-.888-3.485-2.608-4.548-2.011-1.243-4.441-.287-6.755-1.139s-3.282-3.377-2.7-5.832c.452-1.924,1.674-3.641,1.562-5.689A6.573,6.573,0,0,0,346.67,215.31Z"/><path class="d" d="M372.041,218.812a10.915,10.915,0,0,1,3.741-2.78,23.19,23.19,0,0,0,3.111-1.4,3.456,3.456,0,0,0,1.92-2.523c.118-2.065-1.805-3.169-2.488-4.979-.879-2.33.285-4.372,1.616-6.4s2.788-3.762,2.768-6.474a9.565,9.565,0,0,0-3.538-7c2.315.928,4.642,1.624,6.565,3.366s3.215,4.139,2.7,6.733c-.459,2.328-2.211,3.694-3.311,5.621a4.911,4.911,0,0,0-.827,3.453c.381,2.037,2.48,3.35,2.8,5.4s-.878,3.564-2.445,4.667-3.38,1.643-5,2.662a4.868,4.868,0,0,0-2.541,4.611c.265,2.236,2.481,3.8,2.1,6.088s-2.458,3.061-4.424,3.534-4.376.428-5.832,1.93c-1.7,1.75-1.221,4.059-2.192,6.233a5.627,5.627,0,0,1-4,3.519c-1.951.368-3.351-.327-4.841-1.59-.437-.371-1.115-1-1.605-1.381,1.625.806,3.037.179,4.282-.944a8.581,8.581,0,0,0,2.3-4.08c.457-1.494.526-2.894,1.868-3.859,1.571-1.129,3.608-.488,5.447-1.314a3.921,3.921,0,0,0,1.874-4.913c-.479-1.543-1.573-2.875-1.6-4.552A5.378,5.378,0,0,1,372.041,218.812Z"/><path class="c" d="M664.493,44.87A15.425,15.425,0,0,0,660.759,40c-1.105-.962-2.349-1.767-3.368-2.821a5.38,5.38,0,0,1-1.729-3.9c.156-2.567,2.823-4.223,3.783-6.609,1.235-3.072-.619-6.507-2.8-8.994s-4.87-4.789-5.728-7.987c-.893-3.33.693-7.187,3.072-9.683-2.752,1.561-5.568,3.176-7.581,5.616s-3.079,5.925-1.833,8.834c1.118,2.609,3.76,4.179,5.613,6.33A5.669,5.669,0,0,1,651.82,25.2c-.418,2.557-3.351,3.989-4.176,6.445-.748,2.227.462,4.672,2.1,6.362s3.694,2.929,5.267,4.675,2.613,4.312,1.635,6.449c-1.129,2.469-4.521,3.5-5.171,6.141-.6,2.44,1.5,4.657,3.48,6.2s4.267,3.387,4.212,5.9c-.065,2.929-3.22,4.706-4.647,7.265a6.629,6.629,0,0,0,5.712,9.858l2.652.391c-2-.582-3.1-2.882-2.938-4.954a11.306,11.306,0,0,1,2.524-5.612c1.232-1.68,2.671-3.537,2.369-5.6-.353-2.412-2.892-3.83-4.065-5.967a7.346,7.346,0,0,1,.854-7.616c1.235-1.712,3.062-3.088,3.652-5.115A7.335,7.335,0,0,0,664.493,44.87Z"/><path class="c" d="M645.088,53.739a12.288,12.288,0,0,0-4.462-2.764A26.032,26.032,0,0,1,637,49.7c-1.105-.606-2.208-1.334-2.395-2.648-.329-2.306,1.724-3.728,2.318-5.825.765-2.7-.737-4.879-2.423-7.028s-3.488-3.955-3.723-7a10.763,10.763,0,0,1,3.3-8.194c-2.51,1.261-5.055,2.264-7.046,4.4s-3.215,4.951-2.393,7.814c.737,2.568,2.833,3.935,4.251,5.993a5.529,5.529,0,0,1,1.257,3.8c-.233,2.323-2.465,4-2.623,6.32s1.325,3.916,3.189,5.005,3.949,1.522,5.865,2.511a5.481,5.481,0,0,1,3.29,4.933c-.084,2.534-2.422,4.5-1.776,7.033s3.049,3.2,5.3,3.544,4.951.064,6.728,1.61c2.072,1.8,1.757,4.439,3.053,6.787A6.338,6.338,0,0,0,658,82.321c2.225.228,3.73-.686,5.282-2.245.455-.458,1.156-1.23,1.669-1.7-1.747,1.059-3.391.491-4.895-.652a9.668,9.668,0,0,1-2.968-4.359c-.654-1.633-.865-3.2-2.464-4.153-1.87-1.118-4.095-.2-6.238-.957a4.415,4.415,0,0,1-2.571-5.334c.391-1.778,1.492-3.376,1.361-5.262A6.057,6.057,0,0,0,645.088,53.739Z"/><path class="c" d="M668.505,56.614A10.063,10.063,0,0,1,671.912,54a21.379,21.379,0,0,0,2.846-1.331,3.187,3.187,0,0,0,1.734-2.35c.08-1.9-1.706-2.894-2.36-4.552-.842-2.134.2-4.031,1.4-5.917s2.517-3.5,2.46-6a8.8,8.8,0,0,0-3.355-6.4c2.145.822,4.3,1.431,6.093,3.009a6.719,6.719,0,0,1,2.583,6.164c-.391,2.151-1.985,3.433-2.973,5.224a4.53,4.53,0,0,0-.714,3.191c.379,1.871,2.331,3.051,2.649,4.931s-.759,3.294-2.188,4.332-3.09,1.56-4.569,2.521a4.485,4.485,0,0,0-2.276,4.282c.275,2.055,2.338,3.465,2.018,5.578s-2.221,2.853-4.026,3.316-4.025.455-5.345,1.858c-1.539,1.635-1.069,3.756-1.933,5.772a5.184,5.184,0,0,1-3.632,3.3,5,5,0,0,1-4.481-1.4c-.407-.335-1.041-.907-1.5-1.25,1.508.72,2.8.123,3.931-.929a7.909,7.909,0,0,0,2.06-3.789c.4-1.382.445-2.673,1.668-3.58,1.431-1.062,3.316-.5,5-1.286a3.611,3.611,0,0,0,1.659-4.55c-.463-1.415-1.489-2.627-1.535-4.172A4.952,4.952,0,0,1,668.505,56.614Z"/><path class="b" d="M250.411,120.762a12.558,12.558,0,0,1,3.045-3.973c.9-.785,1.916-1.442,2.747-2.3a4.381,4.381,0,0,0,1.409-3.184c-.126-2.093-2.3-3.443-3.084-5.389-1.008-2.505.5-5.307,2.286-7.335s3.972-3.905,4.671-6.513c.729-2.716-.565-5.861-2.5-7.9a21.312,21.312,0,0,1,6.183,4.58c1.642,1.991,2.511,4.832,1.5,7.2-.912,2.128-3.067,3.408-4.578,5.163a4.62,4.62,0,0,0-1.334,3.607c.341,2.085,2.733,3.253,3.405,5.256.61,1.817-.376,3.811-1.708,5.188s-3.013,2.389-4.3,3.813-2.13,3.516-1.333,5.259c.921,2.014,3.687,2.858,4.218,5.008.491,1.99-1.221,3.8-2.838,5.057s-3.481,2.762-3.435,4.812c.052,2.388,2.625,3.837,3.789,5.924a5.405,5.405,0,0,1-4.658,8.039l-2.163.319a3.847,3.847,0,0,0,2.4-4.04,9.218,9.218,0,0,0-2.058-4.576c-1-1.37-2.178-2.885-1.932-4.566.288-1.967,2.358-3.123,3.315-4.865a5.992,5.992,0,0,0-.7-6.211c-1.007-1.4-2.5-2.519-2.978-4.172A5.978,5.978,0,0,1,250.411,120.762Z"/><path class="b" d="M266.235,127.994a10.033,10.033,0,0,1,3.64-2.253,21.344,21.344,0,0,0,2.956-1.039c.9-.5,1.8-1.088,1.953-2.16.268-1.881-1.406-3.04-1.891-4.75-.623-2.2.6-3.979,1.976-5.731s2.845-3.226,3.037-5.71a8.78,8.78,0,0,0-2.694-6.682c2.047,1.028,4.122,1.846,5.746,3.59a6.7,6.7,0,0,1,1.952,6.372c-.6,2.095-2.311,3.209-3.468,4.887a4.521,4.521,0,0,0-1.025,3.1c.191,1.894,2.011,3.258,2.14,5.154s-1.081,3.194-2.6,4.081-3.22,1.242-4.783,2.049a4.469,4.469,0,0,0-2.683,4.022c.069,2.067,1.976,3.67,1.449,5.735s-2.487,2.61-4.324,2.891-4.038.052-5.487,1.313c-1.689,1.47-1.433,3.62-2.49,5.534a5.168,5.168,0,0,1-3.93,2.911,4.987,4.987,0,0,1-4.308-1.832c-.371-.373-.943-1-1.361-1.389,1.424.865,2.765.4,3.992-.531a7.882,7.882,0,0,0,2.42-3.555c.534-1.332.706-2.608,2.009-3.387,1.525-.911,3.34-.166,5.087-.78a3.6,3.6,0,0,0,2.1-4.35c-.318-1.45-1.216-2.753-1.109-4.291A4.941,4.941,0,0,1,266.235,127.994Z"/><path class="b" d="M247.139,130.339a8.208,8.208,0,0,0-2.778-2.13,17.346,17.346,0,0,1-2.322-1.086,2.6,2.6,0,0,1-1.413-1.916c-.066-1.553,1.391-2.36,1.925-3.712.686-1.74-.166-3.287-1.142-4.825s-2.053-2.857-2.007-4.894a7.184,7.184,0,0,1,2.736-5.219,15.2,15.2,0,0,0-4.968,2.454,5.48,5.48,0,0,0-2.107,5.027c.319,1.754,1.619,2.8,2.424,4.26a3.692,3.692,0,0,1,.583,2.6c-.309,1.526-1.9,2.488-2.161,4.02a3.6,3.6,0,0,0,1.785,3.533c1.165.847,2.52,1.272,3.726,2.056A3.657,3.657,0,0,1,243.276,134c-.224,1.677-1.906,2.826-1.646,4.55s1.812,2.326,3.284,2.7,3.282.37,4.359,1.514c1.255,1.334.871,3.063,1.575,4.707a4.226,4.226,0,0,0,2.963,2.688,4.076,4.076,0,0,0,3.654-1.14c.332-.273.849-.739,1.221-1.019a2.726,2.726,0,0,1-3.206-.757,6.445,6.445,0,0,1-1.68-3.09c-.326-1.128-.362-2.18-1.36-2.92-1.167-.866-2.7-.407-4.076-1.049a2.944,2.944,0,0,1-1.353-3.71c.377-1.154,1.214-2.142,1.252-3.4A4.042,4.042,0,0,0,247.139,130.339Z"/><path class="b" d="M333.846,122.388a6.9,6.9,0,0,0,4.508-4.631,7.913,7.913,0,0,0-7,3.315,18.8,18.8,0,0,1-4.828-1.481,15.02,15.02,0,0,1,.55-1.422,15.96,15.96,0,0,1-3.542-1.938,6.777,6.777,0,0,1-2.389-3.193,12.112,12.112,0,0,0-4.442,3.19,14.934,14.934,0,0,0-7.287,1.314c-.913.421-1.782.935-2.681,1.383a.983.983,0,0,0-.22,1.606,11.2,11.2,0,0,0,2.9,1.816,26.5,26.5,0,0,0,4.35,1.526,7.531,7.531,0,0,0,.682.756,4.045,4.045,0,0,0,2.3,1.133.83.83,0,0,0,.546-.09c.313-.211.269-.677.176-1.042-.014-.053-.033-.1-.047-.157.417.029.834.047,1.253.048.139,0,.277-.015.416-.018a9.991,9.991,0,0,0,1.623,1.3,4.048,4.048,0,0,0,2.479.651.827.827,0,0,0,.517-.2c.265-.269.129-.717-.035-1.056s-.349-.684-.543-1.015l2.724-.291a12.218,12.218,0,0,0,2.928,2.155.927.927,0,0,0,1.537-.979,12.366,12.366,0,0,0-.228-1.614c.388-.031.777-.054,1.165-.057a7.883,7.883,0,0,0,5.8,4.587A6.9,6.9,0,0,0,333.846,122.388Z"/><path class="b" d="M365.716,113.964a6.9,6.9,0,0,0,4.858-4.262,7.91,7.91,0,0,0-7.233,2.754,18.761,18.761,0,0,1-4.7-1.856,15.217,15.217,0,0,1,.66-1.375,15.919,15.919,0,0,1-3.379-2.21,6.786,6.786,0,0,1-2.13-3.371,12.12,12.12,0,0,0-4.679,2.831,14.932,14.932,0,0,0-7.368.736c-.943.348-1.85.792-2.781,1.168a.982.982,0,0,0-.346,1.583A11.2,11.2,0,0,0,341.37,112a26.425,26.425,0,0,0,4.217,1.864,7.364,7.364,0,0,0,.62.808,4.055,4.055,0,0,0,2.2,1.31.831.831,0,0,0,.551-.048c.328-.185.322-.653.258-1.024-.01-.054-.025-.107-.035-.16.413.062.828.112,1.245.146.139.011.278.007.417.015a10.071,10.071,0,0,0,1.515,1.427,4.049,4.049,0,0,0,2.42.844.831.831,0,0,0,.531-.156c.285-.247.185-.7.048-1.056s-.294-.709-.462-1.054l2.739-.077a12.166,12.166,0,0,0,2.75,2.38.927.927,0,0,0,1.609-.855,12.469,12.469,0,0,0-.1-1.627c.389,0,.778.007,1.166.035a7.878,7.878,0,0,0,5.423,5.029A6.894,6.894,0,0,0,365.716,113.964Z"/><path class="b" d="M368.077,139.287a5.794,5.794,0,0,0,3.891-3.783,6.642,6.642,0,0,0-5.947,2.621A15.758,15.758,0,0,1,362,136.77c.148-.4.308-.8.5-1.181a13.383,13.383,0,0,1-2.928-1.708,5.686,5.686,0,0,1-1.931-2.735,10.179,10.179,0,0,0-3.8,2.575,12.534,12.534,0,0,0-6.146.934c-.776.332-1.517.744-2.282,1.1a.825.825,0,0,0-.221,1.342,9.364,9.364,0,0,0,2.392,1.592,22.363,22.363,0,0,0,3.616,1.382,6.367,6.367,0,0,0,.555.65,3.4,3.4,0,0,0,1.9,1,.7.7,0,0,0,.46-.064c.268-.169.242-.562.172-.87-.01-.045-.025-.088-.036-.133.349.035.7.059,1.051.069.116,0,.233-.006.35,0a8.377,8.377,0,0,0,1.331,1.131,3.4,3.4,0,0,0,2.066.6.694.694,0,0,0,.439-.154c.228-.219.124-.6-.006-.887s-.277-.582-.432-.864l2.293-.182a10.264,10.264,0,0,0,2.408,1.877.779.779,0,0,0,1.313-.786,10.521,10.521,0,0,0-.154-1.36c.326-.017.653-.028.979-.021a6.617,6.617,0,0,0,4.764,3.984A5.792,5.792,0,0,0,368.077,139.287Z"/><path class="b" d="M397.2,126.536a5.793,5.793,0,0,0,3.373-4.251,6.643,6.643,0,0,0-5.562,3.362,15.751,15.751,0,0,1-4.159-.827c.095-.417.2-.83.339-1.235a13.411,13.411,0,0,1-3.123-1.318A5.689,5.689,0,0,1,385.8,119.8a10.183,10.183,0,0,0-3.441,3.041,12.537,12.537,0,0,0-5.975,1.716c-.727.429-1.41.932-2.122,1.382a.825.825,0,0,0-.048,1.36,9.4,9.4,0,0,0,2.577,1.272,22.335,22.335,0,0,0,3.764.906,6.256,6.256,0,0,0,.633.574,3.407,3.407,0,0,0,2.017.751.7.7,0,0,0,.449-.122c.243-.2.167-.589.058-.885-.015-.043-.036-.085-.052-.127.351-.011.7-.032,1.051-.067.116-.011.23-.036.346-.05a8.435,8.435,0,0,0,1.466.951,3.4,3.4,0,0,0,2.126.334.7.7,0,0,0,.415-.209c.2-.247.047-.61-.119-.879s-.349-.542-.54-.8l2.251-.474a10.251,10.251,0,0,0,2.629,1.552.778.778,0,0,0,1.2-.948,10.518,10.518,0,0,0-.327-1.329c.321-.059.644-.111.968-.146a6.622,6.622,0,0,0,5.236,3.34A5.793,5.793,0,0,0,397.2,126.536Z"/><path class="b" d="M423.376,113.992A4.349,4.349,0,0,0,425.3,110.4a4.985,4.985,0,0,0-3.658,3.23,11.8,11.8,0,0,1-3.184-.054c.015-.32.039-.64.085-.957a10.115,10.115,0,0,1-2.484-.555,4.286,4.286,0,0,1-2-1.517,7.643,7.643,0,0,0-2.134,2.708,9.41,9.41,0,0,0-4.184,2.069c-.48.415-.917.878-1.383,1.306a.619.619,0,0,0,.148,1.011,7.03,7.03,0,0,0,2.074.594,16.766,16.766,0,0,0,2.9.165,4.949,4.949,0,0,0,.545.339,2.552,2.552,0,0,0,1.591.284.523.523,0,0,0,.315-.15c.153-.182.045-.457-.075-.662-.018-.03-.038-.058-.056-.087.258-.055.514-.117.767-.19.085-.024.166-.057.249-.083a6.37,6.37,0,0,0,1.211.506,2.558,2.558,0,0,0,1.616-.039.523.523,0,0,0,.278-.21c.114-.209-.047-.457-.206-.634s-.33-.353-.506-.519l1.6-.653a7.705,7.705,0,0,0,2.151.794.584.584,0,0,0,.76-.861,7.8,7.8,0,0,0-.42-.938c.23-.087.461-.169.7-.238a4.97,4.97,0,0,0,4.317,1.765A4.349,4.349,0,0,0,423.376,113.992Z"/><path class="b" d="M392.43,112.346a3.135,3.135,0,0,0,1.821-2.3,3.592,3.592,0,0,0-3.006,1.824,8.534,8.534,0,0,1-2.251-.444,6.732,6.732,0,0,1,.183-.668,7.255,7.255,0,0,1-1.691-.71,3.084,3.084,0,0,1-1.229-1.331,5.5,5.5,0,0,0-1.858,1.648,6.787,6.787,0,0,0-3.231.933c-.393.233-.762.506-1.147.75a.447.447,0,0,0-.024.736,5.064,5.064,0,0,0,1.395.686,12.077,12.077,0,0,0,2.037.486,3.465,3.465,0,0,0,.343.31,1.845,1.845,0,0,0,1.092.405.38.38,0,0,0,.243-.067c.131-.109.09-.318.031-.479-.009-.023-.02-.045-.029-.068.19-.007.379-.018.568-.037.063-.006.125-.02.188-.028a4.5,4.5,0,0,0,.794.513,1.836,1.836,0,0,0,1.15.179.385.385,0,0,0,.225-.113c.107-.134.024-.33-.066-.476s-.189-.292-.292-.433l1.217-.259a5.547,5.547,0,0,0,1.424.838.421.421,0,0,0,.649-.514,5.722,5.722,0,0,0-.179-.719c.174-.032.348-.061.524-.08a3.58,3.58,0,0,0,2.836,1.8A3.133,3.133,0,0,0,392.43,112.346Z"/><path class="b" d="M425.95,130.939a3.135,3.135,0,0,0,1.542-2.5,3.594,3.594,0,0,0-2.774,2.159,8.49,8.49,0,0,1-2.288-.18c.025-.23.057-.459.1-.685a7.247,7.247,0,0,1-1.761-.51,3.081,3.081,0,0,1-1.374-1.18,5.5,5.5,0,0,0-1.656,1.852,6.776,6.776,0,0,0-3.1,1.3c-.363.276-.7.59-1.053.877a.447.447,0,0,0,.061.734,5.069,5.069,0,0,0,1.466.519,12.008,12.008,0,0,0,2.079.248,3.216,3.216,0,0,0,.377.268,1.84,1.84,0,0,0,1.131.276.377.377,0,0,0,.233-.094c.118-.124.053-.327-.024-.479-.012-.022-.025-.043-.036-.065q.281-.042.56-.1c.061-.014.121-.035.183-.049a4.531,4.531,0,0,0,.847.417,1.843,1.843,0,0,0,1.164.045.374.374,0,0,0,.21-.139c.091-.145-.014-.331-.12-.465s-.222-.268-.341-.4l1.179-.4a5.519,5.519,0,0,0,1.511.667.421.421,0,0,0,.585-.585,5.573,5.573,0,0,0-.26-.694c.169-.051.339-.1.511-.14a3.579,3.579,0,0,0,3.025,1.463A3.133,3.133,0,0,0,425.95,130.939Z"/><path class="b" d="M336.29,138.258a1.928,1.928,0,0,0,1.382-1.161,2.211,2.211,0,0,0-2.037.726,5.256,5.256,0,0,1-1.3-.547,4.235,4.235,0,0,1,.193-.38,4.453,4.453,0,0,1-.931-.638,1.893,1.893,0,0,1-.575-.954,3.392,3.392,0,0,0-1.324.763,4.162,4.162,0,0,0-2.062.162c-.266.091-.522.21-.784.309a.274.274,0,0,0-.106.44,3.1,3.1,0,0,0,.755.586,7.419,7.419,0,0,0,1.167.546,2.112,2.112,0,0,0,.169.229,1.128,1.128,0,0,0,.607.379.235.235,0,0,0,.155-.009c.092-.05.093-.181.078-.285,0-.015-.007-.03-.009-.045.115.02.231.036.347.048.039,0,.078,0,.116.007a2.807,2.807,0,0,0,.415.408,1.133,1.133,0,0,0,.671.25.226.226,0,0,0,.149-.041c.081-.067.056-.195.02-.294s-.078-.2-.123-.3l.766,0a3.4,3.4,0,0,0,.754.681c.1.065.228.127.332.068a.334.334,0,0,0,.122-.3,3.477,3.477,0,0,0-.018-.456c.109,0,.217.007.325.017a2.2,2.2,0,0,0,1.486,1.437A1.929,1.929,0,0,0,336.29,138.258Z"/><path class="b" d="M357.207,124.174a1.926,1.926,0,0,0,1.243-1.31,2.21,2.21,0,0,0-1.943.952,5.292,5.292,0,0,1-1.354-.4c.044-.136.092-.269.149-.4a4.468,4.468,0,0,1-1-.528,1.887,1.887,0,0,1-.679-.883,3.371,3.371,0,0,0-1.23.907,4.161,4.161,0,0,0-2.031.394c-.253.121-.494.268-.744.4a.274.274,0,0,0-.055.449,3.113,3.113,0,0,0,.817.5,7.4,7.4,0,0,0,1.221.411,2.243,2.243,0,0,0,.193.209,1.136,1.136,0,0,0,.647.307.227.227,0,0,0,.152-.027c.087-.06.073-.19.045-.292l-.013-.043c.116.007.233.01.35.009.039,0,.077-.006.116-.007a2.758,2.758,0,0,0,.458.358,1.126,1.126,0,0,0,.695.173.229.229,0,0,0,.144-.057c.073-.076.033-.2-.014-.3s-.1-.189-.155-.281l.76-.092a3.407,3.407,0,0,0,.826.592.259.259,0,0,0,.426-.279,3.437,3.437,0,0,0-.07-.451c.108-.01.217-.017.325-.02a2.208,2.208,0,0,0,1.638,1.261A1.928,1.928,0,0,0,357.207,124.174Z"/><path class="b" d="M439.437,120.068a1.928,1.928,0,0,0,.822-1.608,2.21,2.21,0,0,0-1.594,1.461,5.256,5.256,0,0,1-1.412,0c0-.142.012-.284.03-.425a4.5,4.5,0,0,1-1.105-.225,1.9,1.9,0,0,1-.9-.656,3.387,3.387,0,0,0-.923,1.217,4.178,4.178,0,0,0-1.838.951c-.209.188-.4.4-.6.59a.274.274,0,0,0,.073.447,3.147,3.147,0,0,0,.924.246,7.381,7.381,0,0,0,1.287.049,2.029,2.029,0,0,0,.245.146,1.131,1.131,0,0,0,.707.113.231.231,0,0,0,.138-.069c.066-.082.016-.2-.039-.293-.007-.013-.017-.025-.025-.038q.171-.039.339-.09c.037-.011.072-.027.109-.039a2.794,2.794,0,0,0,.541.214,1.135,1.135,0,0,0,.715-.03.234.234,0,0,0,.122-.095c.049-.094-.025-.2-.1-.279s-.15-.154-.229-.227l.7-.3a3.414,3.414,0,0,0,.96.335c.117.021.26.028.333-.067a.337.337,0,0,0,0-.322,3.683,3.683,0,0,0-.194-.412c.1-.04.2-.078.306-.111a2.2,2.2,0,0,0,1.927.747A1.925,1.925,0,0,0,439.437,120.068Z"/><path class="b" d="M398.356,142.858A3.134,3.134,0,0,0,400.1,140.5a3.59,3.59,0,0,0-2.942,1.925,8.563,8.563,0,0,1-2.265-.367,6.736,6.736,0,0,1,.16-.674,7.221,7.221,0,0,1-1.714-.653,3.072,3.072,0,0,1-1.273-1.289,5.5,5.5,0,0,0-1.8,1.711,6.79,6.79,0,0,0-3.2,1.042c-.385.246-.744.531-1.121.789a.446.446,0,0,0,0,.736,5.075,5.075,0,0,0,1.418.637,11.949,11.949,0,0,0,2.052.418,3.455,3.455,0,0,0,.353.3,1.842,1.842,0,0,0,1.105.367.376.376,0,0,0,.241-.074c.127-.114.079-.322.014-.48-.009-.023-.021-.045-.031-.068.19-.012.379-.03.567-.056.063-.008.124-.024.186-.033a4.543,4.543,0,0,0,.811.485,1.844,1.844,0,0,0,1.156.14.384.384,0,0,0,.221-.121c.1-.137.013-.331-.082-.473s-.2-.286-.307-.423l1.208-.3a5.554,5.554,0,0,0,1.451.789.421.421,0,0,0,.631-.536,5.5,5.5,0,0,0-.2-.712c.173-.038.347-.073.521-.1a3.585,3.585,0,0,0,2.9,1.705A3.137,3.137,0,0,0,398.356,142.858Z"/><path class="d" d="M302.137,160.443a51.675,51.675,0,0,0-19.653,4.012A44.552,44.552,0,0,0,264.958,177.7a5.352,5.352,0,0,1-2.106,1.9c-.57.216-1.2.217-1.782.4a1.443,1.443,0,0,0-1.125,1.274,3.545,3.545,0,0,0,2.377,1.372,10.267,10.267,0,0,1,2.671.558,8.774,8.774,0,0,1,2.6,2.413,14.57,14.57,0,0,0,8.059,4.579c1.938.372,3.967.352,5.816,1.041,1.055.394,2.013,1,3.04,1.467a11.861,11.861,0,0,0,6.126,1.213,13.8,13.8,0,0,1-2.677-3.4,6.309,6.309,0,0,1-.685-4.2,13.692,13.692,0,0,1,1.284-3,19.306,19.306,0,0,1,3.592.576,7.284,7.284,0,0,1,1.069.366,10.82,10.82,0,0,1,1.671.915.527.527,0,0,0,.8-.609,9.415,9.415,0,0,1-.615-3.17,8.684,8.684,0,0,1,.247-1.918,12.872,12.872,0,0,1,2.775-5.451.534.534,0,0,0-.484-.883,15.66,15.66,0,0,0-5.119,2.132,42.46,42.46,0,0,1-4.331,2.4c-.167-.256-.333-.513-.483-.775a7.283,7.283,0,0,1-.946-4.743,9.042,9.042,0,0,1,1.054-2.839,10.306,10.306,0,0,1,2.672-3.279,15.267,15.267,0,0,1,2.913-1.623,51.487,51.487,0,0,1,8.825-3.574A.205.205,0,0,0,302.137,160.443Z"/><path class="d" d="M678.909,78.323a40.6,40.6,0,0,1,15.44,3.153,35,35,0,0,1,13.769,10.4,4.215,4.215,0,0,0,1.655,1.5c.448.169.944.17,1.4.316a1.132,1.132,0,0,1,.883,1,2.78,2.78,0,0,1-1.867,1.077,8.072,8.072,0,0,0-2.1.44,6.883,6.883,0,0,0-2.044,1.895,11.436,11.436,0,0,1-6.331,3.6,27.958,27.958,0,0,0-4.57.819c-.828.309-1.581.789-2.388,1.152a9.331,9.331,0,0,1-4.813.953,10.826,10.826,0,0,0,2.1-2.671,4.959,4.959,0,0,0,.539-3.3,10.782,10.782,0,0,0-1.009-2.356,15.132,15.132,0,0,0-2.822.453,5.776,5.776,0,0,0-.84.287,8.536,8.536,0,0,0-1.313.719.414.414,0,0,1-.626-.478,7.378,7.378,0,0,0,.483-2.491,6.788,6.788,0,0,0-.194-1.507A10.1,10.1,0,0,0,682.086,89a.419.419,0,0,1,.38-.693,12.284,12.284,0,0,1,4.022,1.674,33.1,33.1,0,0,0,3.4,1.887c.131-.2.261-.4.379-.608a5.716,5.716,0,0,0,.743-3.727,7.078,7.078,0,0,0-.828-2.23,8.073,8.073,0,0,0-2.1-2.576,11.927,11.927,0,0,0-2.288-1.275,40.408,40.408,0,0,0-6.934-2.808A.162.162,0,0,1,678.909,78.323Z"/><path class="b" d="M241.532,76.586a32.12,32.12,0,0,0-6.279-4.745,6.033,6.033,0,0,0-1.619-.756,5.29,5.29,0,0,0-3.7.77c-.694.375-1.363.808-2.062,1.173A13.279,13.279,0,0,0,225,66.506c.075-.067.149-.135.225-.2a5,5,0,0,1,1.751-1.159c.778-.241,1.649-.094,2.4-.411a2.833,2.833,0,0,0,1-.766,4.466,4.466,0,0,0,1.1-3.027c-.013-.541-.086-2.416-.992-3.3-.926-.9-2.691-.8-3.246-.779a4.467,4.467,0,0,0-2.961,1.263,2.835,2.835,0,0,0-.709,1.044c-.275.767-.08,1.628-.277,2.418a5.018,5.018,0,0,1-1.06,1.813c-.144.182-.288.363-.434.543a12.562,12.562,0,0,0-4.42-1.313c.373-.821.859-1.6,1.272-2.4a5.3,5.3,0,0,0,.688-3.715,6.028,6.028,0,0,0-.792-1.6,32.12,32.12,0,0,0-4.882-6.172,17.471,17.471,0,0,0-6.66-4.1,5.957,5.957,0,0,0-3.807-.167.94.94,0,0,0-.516.357c-.218.368.059.825.334,1.153,1.933,2.3,4.368,4.153,6.156,6.564a23.291,23.291,0,0,1,1.442,2.242,22.967,22.967,0,0,1,3.006,7.933c-.134.021-.268.039-.4.063a21.277,21.277,0,0,0-10.163,5.443,22.315,22.315,0,0,0-5.016,6.31,13.834,13.834,0,0,0-1.544,7.837,15.261,15.261,0,0,0,.283,1.574,13.5,13.5,0,0,1-2.55.056c-2.469-.208-4.78-1.335-7.24-1.632a3.6,3.6,0,0,0-1.412.047,1.566,1.566,0,0,0-1.057.874,1.722,1.722,0,0,0,.721,1.89c.464.348,1.067.583,1.307,1.111.263.577-.006,1.331.371,1.841a1.468,1.468,0,0,0,1.05.484,4.121,4.121,0,0,1,1.17.2,7.159,7.159,0,0,1,1.292,1.044,3.277,3.277,0,0,0,2.524.45,14.115,14.115,0,0,0,2.5-.839,20.735,20.735,0,0,1,2.422-.75,8.412,8.412,0,0,1-.6,5.033.538.538,0,0,0,.6.788,20.129,20.129,0,0,1,6.357-.305,20.6,20.6,0,0,1-.461,2.169,14.177,14.177,0,0,0-.588,2.567,3.273,3.273,0,0,0,.7,2.467c.374.412.9.7,1.167,1.183a4.138,4.138,0,0,1,.31,1.144,1.474,1.474,0,0,0,.585,1c.545.324,1.269-.018,1.869.186.549.187.842.764,1.234,1.191a1.722,1.722,0,0,0,1.953.531,1.568,1.568,0,0,0,.765-1.138,3.616,3.616,0,0,0-.093-1.41c-.538-2.418-1.888-4.607-2.34-7.043a13.534,13.534,0,0,1-.2-2.479,16.482,16.482,0,0,0,5.7-.594c3.352-1.068,6.015-3.609,8.337-6.251a18.453,18.453,0,0,0,3.654-5.531,19.182,19.182,0,0,0,.916-4.127q.077-.559.14-1.12a23.372,23.372,0,0,1,7.679,2.792,23.137,23.137,0,0,1,2.273,1.391c2.45,1.735,4.359,4.128,6.7,6.01.334.268.8.535,1.16.308a.945.945,0,0,0,.346-.524,5.963,5.963,0,0,0-.251-3.8A17.49,17.49,0,0,0,241.532,76.586Z"/><path class="d" d="M582.868,203.87c-1.648-6.049-7.537-10.493-13.779-11.07s-12.546,2.41-16.607,7.185A17.731,17.731,0,0,0,548,212.876c.475,4.917,3.444,9.233,6.738,12.915s7.038,7.023,9.64,11.222a10.246,10.246,0,0,1,1.848,5.506l14.8-5.734c-1.153-4.461-.619-9.179.24-13.7s2.041-9.028,2.169-13.634A19.15,19.15,0,0,0,582.868,203.87Z"/><path class="d" d="M555.25,234.793c-4.072-2.765-8.044-6.19-9.614-10.855-2.123-6.3.488-13.848-2.973-19.528a12.631,12.631,0,0,0-6.29-5.016,12.956,12.956,0,0,0-11.671.9,9.945,9.945,0,0,0-4.214,6.5A1.376,1.376,0,0,0,522.826,208a22.678,22.678,0,0,1,2.238-2,7.855,7.855,0,0,1,5.76-1.763c3.03.385,5.462,2.885,6.615,5.714s1.253,5.963,1.272,9.018-.019,6.169.89,9.086c1.45,4.654,5.177,8.3,9.325,10.859l14.086-.287c-.354-.087-.7-.183-1.05-.295A26.91,26.91,0,0,1,555.25,234.793Z"/><path class="d" d="M563.012,238.625a11.47,11.47,0,0,0,6.431-.131Z"/><path class="d" d="M595.841,228.636c-.93-2.973-5.5-24.726-5-27.8.605-3.711,2.4-7.418,5.919-9.124a6.868,6.868,0,0,1,7.413.7c1.712,1.418,2.214,3.307,2.382,5.426a1.092,1.092,0,0,0,2.046.441,8.042,8.042,0,0,0-.192-8.636,9.5,9.5,0,0,0-4.148-3.487c-4.131-1.79-8.853-.754-12.639,1.487-4.918,2.911-8.654,8.14-8.84,13.852-.112,3.461,1.029,6.822,1.971,10.154,1.862,6.589,2.973,13.677,1,20.235-.833,2.773-2.434,5.593-5.143,6.614"/><path class="d" d="M564.743,236.181l.893,2.905A8.714,8.714,0,0,0,564.743,236.181Z"/><path class="d" d="M562.544,229.024a20.612,20.612,0,0,0-6.669-7.274,36.877,36.877,0,0,1-4.454-2.985,9.909,9.909,0,0,1-3.07-8.99c.579-3.157,2.653-5.8,4.549-8.383s3.747-5.475,3.758-8.684c.01-2.88-1.481-5.558-3.243-7.836a13.658,13.658,0,0,0-3.059-3.045,10.08,10.08,0,0,0-8.691-1.009,11.212,11.212,0,0,0-3.394,1.825,1.078,1.078,0,0,0,.808,1.913,9.17,9.17,0,0,1,1.434-.057,13.263,13.263,0,0,1,5.648,1.671,8.931,8.931,0,0,1,3.139,2.513,7.58,7.58,0,0,1,1.232,4.932c-.29,4.4-3.187,8.126-5.7,11.752s-4.859,7.953-3.849,12.25c.87,3.706,4.068,6.431,7.454,8.171s7.11,2.77,10.427,4.637a14.413,14.413,0,0,1,5.883,5.756Z"/><path class="d" d="M565.787,203.386a5.719,5.719,0,0,0,2.179-5,10.075,10.075,0,0,0-2.352-4.918,17.827,17.827,0,0,1-2.953-4.64,7.829,7.829,0,0,1,.692-6.525,8.448,8.448,0,0,1,5.369-3.828,7.519,7.519,0,0,1,7.2,2.144,6.078,6.078,0,0,1,1.318,5.182.656.656,0,0,1-1.255.072,8.054,8.054,0,0,0-.844-1.714,4.6,4.6,0,0,0-3.18-2.12,3.7,3.7,0,0,0-3.468,1.433,4.41,4.41,0,0,0-.357,3.932,12,12,0,0,0,2.143,3.47,15.708,15.708,0,0,1,2.285,3.389,7.461,7.461,0,0,1-1.528,8.067"/><path class="b" d="M525.322,79.212a7.615,7.615,0,0,0,2.286-1.832c.935-1.108,1.536-2.463,2.448-3.59,2.294-2.836,6.15-3.819,9.08-5.993,1.327-.984,2.455-2.208,3.714-3.277a8.979,8.979,0,0,1,4.341-2.25,4.314,4.314,0,0,1,4.325,1.768,14.319,14.319,0,0,0,1.033,1.983,3.97,3.97,0,0,0,3.567.944c2.094-.247,4.118-.984,6.224-1.1s4.468.6,5.459,2.46a6.081,6.081,0,0,1-.172,5.065,9.787,9.787,0,0,0,6.4,1.288,9.473,9.473,0,0,0,5.534-3.262,9.136,9.136,0,0,1,3.587,7.869,9.377,9.377,0,0,1-4.551,7.5,10.188,10.188,0,0,0-9.223-3.2c.11,1.331,1,2.427.884,3.757-.1,1.172-1.246,1.957-2.341,2.385a11.156,11.156,0,0,1-10.064-1.085,41.05,41.05,0,0,1-10.3.981,16.435,16.435,0,0,0-.432,1.941,1.763,1.763,0,0,1-1.1,1.307,2.115,2.115,0,0,1-1.491-.358,19.661,19.661,0,0,1-4.713-3.586,15.646,15.646,0,0,1-8.969-4.083c-1.611-1.5-2.973-3.377-4.992-4.249a1.743,1.743,0,0,1-.881-.583C524.792,79.708,524.966,79.169,525.322,79.212Z"/><path class="b" d="M164.567,25.434a5.763,5.763,0,0,1-1.727-1.384c-.707-.838-1.161-1.862-1.85-2.713-1.734-2.144-4.648-2.887-6.862-4.529-1-.744-1.855-1.668-2.806-2.476a6.767,6.767,0,0,0-3.281-1.7,3.258,3.258,0,0,0-3.268,1.335,10.848,10.848,0,0,1-.78,1.5,3,3,0,0,1-2.7.713c-1.583-.187-3.112-.744-4.7-.828a4.319,4.319,0,0,0-4.125,1.859,4.6,4.6,0,0,0,.13,3.827,7.4,7.4,0,0,1-4.837.974,7.168,7.168,0,0,1-4.182-2.465,6.908,6.908,0,0,0-2.711,5.946,7.088,7.088,0,0,0,3.44,5.664,7.7,7.7,0,0,1,6.97-2.415c-.083,1.006-.754,1.834-.669,2.84.075.885.942,1.478,1.769,1.8a8.431,8.431,0,0,0,7.605-.82,31.036,31.036,0,0,0,7.787.741,12.516,12.516,0,0,1,.326,1.467,1.333,1.333,0,0,0,.829.988,1.6,1.6,0,0,0,1.127-.271,14.855,14.855,0,0,0,3.561-2.709,11.835,11.835,0,0,0,6.777-3.086c1.218-1.131,2.247-2.552,3.773-3.211a1.315,1.315,0,0,0,.665-.441C164.967,25.809,164.836,25.4,164.567,25.434Z"/><path class="b" d="M562.24,109.666a8.941,8.941,0,0,0-3.253-6.36,6.548,6.548,0,0,0-7.3-.447,8.6,8.6,0,0,0-3.812,5.92,1.442,1.442,0,0,0,.626,1.432,4.181,4.181,0,0,1-.163,1.32,11.292,11.292,0,0,1-.9,2.02c-.14.267-.28.533-.412.8a6.085,6.085,0,0,0-.751,3.361,7.454,7.454,0,0,0,.359,1.365,2.7,2.7,0,0,1-.5,3.273,5.41,5.41,0,0,0-.929,1.681,5.3,5.3,0,0,0,0,2.265,4.731,4.731,0,0,1,.045,1.8,4.656,4.656,0,0,1-.808,1.476c-.2.277-.393.556-.561.848a6.985,6.985,0,0,0-.629,4.807,16.432,16.432,0,0,0,1.72,4.4.5.5,0,1,0,.885-.465,15.587,15.587,0,0,1-1.624-4.128,5.982,5.982,0,0,1,.516-4.115c.152-.265.332-.517.509-.769a5.477,5.477,0,0,0,.962-1.809,5.533,5.533,0,0,0-.026-2.192,4.483,4.483,0,0,1-.031-1.848,4.587,4.587,0,0,1,.777-1.366,3.635,3.635,0,0,0,.637-4.176,6.418,6.418,0,0,1-.317-1.179,5.178,5.178,0,0,1,.657-2.791c.128-.261.264-.519.4-.777a12.207,12.207,0,0,0,.975-2.2,5.046,5.046,0,0,0,.191-1.211q.873.279,1.765.491a3.125,3.125,0,0,1-.1.3c-.482,1.1-1.639,2-1.509,3.2.089.821.8,1.521.722,2.343-.087.947-1.15,1.5-1.474,2.4-.483,1.334.828,2.668.856,4.086.039,1.936-2.227,3.2-2.562,5.106a4.534,4.534,0,0,0,.844,3.068,15.647,15.647,0,0,1,1.587,2.831,7.923,7.923,0,0,0-.662-3.221,4.693,4.693,0,0,1-.182-3.239c.538-1.284,2.056-2.035,2.36-3.393.375-1.674-1.3-3.429-.615-5,.332-.769,1.175-1.288,1.314-2.114.192-1.137-1.061-2.17-.814-3.3.216-.985,1.452-1.433,1.8-2.38a1.568,1.568,0,0,0,.065-.357q.54.09,1.083.152a3.918,3.918,0,0,1-.018,1.608,11.179,11.179,0,0,1-.748,2.084c-.12.275-.239.552-.351.83a6.083,6.083,0,0,0-.5,3.407,7.4,7.4,0,0,0,.46,1.335,2.7,2.7,0,0,1-.255,3.3,5.393,5.393,0,0,0-.8,1.744,5.3,5.3,0,0,0,.173,2.259,4.729,4.729,0,0,1,.179,1.794,4.665,4.665,0,0,1-.7,1.529c-.176.292-.351.585-.5.89a6.974,6.974,0,0,0-.272,4.839,16.551,16.551,0,0,0,2.041,4.261.5.5,0,0,0,.425.235.512.512,0,0,0,.265-.075.5.5,0,0,0,.16-.69,15.22,15.22,0,0,1-1.926-4,5.974,5.974,0,0,1,.209-4.143c.132-.276.292-.541.452-.805a5.443,5.443,0,0,0,.824-1.875,5.543,5.543,0,0,0-.189-2.184,4.522,4.522,0,0,1-.168-1.84,4.616,4.616,0,0,1,.673-1.42,3.633,3.633,0,0,0,.325-4.212,6.466,6.466,0,0,1-.4-1.151,5.171,5.171,0,0,1,.449-2.833c.109-.269.225-.536.34-.8a12.294,12.294,0,0,0,.81-2.27,4.855,4.855,0,0,0,.059-1.711,21.332,21.332,0,0,0,2.6.014c-.023.066-.039.135-.067.2-.482,1.1-1.639,2-1.509,3.2.089.821.8,1.521.722,2.343-.087.947-1.15,1.5-1.474,2.4-.483,1.334.828,2.668.856,4.086.039,1.936-2.227,3.2-2.562,5.106a4.53,4.53,0,0,0,.844,3.068,15.647,15.647,0,0,1,1.587,2.831,7.931,7.931,0,0,0-.662-3.222,4.69,4.69,0,0,1-.182-3.238c.538-1.284,2.056-2.035,2.36-3.393.375-1.674-1.3-3.429-.615-5,.332-.769,1.175-1.288,1.314-2.114.191-1.137-1.061-2.17-.814-3.3.216-.985,1.452-1.433,1.8-2.38a1.778,1.778,0,0,0,.081-.738c.4-.055.789-.127,1.181-.207a3.741,3.741,0,0,1,.048,1.851,11.324,11.324,0,0,1-.748,2.084c-.12.275-.239.552-.351.83a6.076,6.076,0,0,0-.5,3.408,7.317,7.317,0,0,0,.46,1.332,2.7,2.7,0,0,1-.255,3.3,5.372,5.372,0,0,0-.8,1.744,5.318,5.318,0,0,0,.172,2.259,3.345,3.345,0,0,1-.515,3.323c-.177.292-.352.585-.5.89a6.978,6.978,0,0,0-.272,4.839,16.551,16.551,0,0,0,2.041,4.261.5.5,0,0,0,.425.235.512.512,0,0,0,.265-.075.5.5,0,0,0,.16-.69,15.22,15.22,0,0,1-1.926-4,5.984,5.984,0,0,1,.209-4.143c.132-.276.292-.541.452-.805a5.441,5.441,0,0,0,.823-1.875,5.524,5.524,0,0,0-.188-2.184,4.5,4.5,0,0,1-.168-1.84,4.616,4.616,0,0,1,.673-1.42,3.634,3.634,0,0,0,.325-4.213,6.457,6.457,0,0,1-.4-1.15,5.171,5.171,0,0,1,.449-2.833c.108-.269.225-.536.34-.8a12.219,12.219,0,0,0,.809-2.27,4.53,4.53,0,0,0-.082-2.313A1.441,1.441,0,0,0,562.24,109.666Z"/><path class="h" d="M434.568,172.977a2.582,2.582,0,1,1-2.581-2.581A2.581,2.581,0,0,1,434.568,172.977Z"/><path class="h" d="M437.15,153.123a2.582,2.582,0,1,1-2.582-2.582A2.582,2.582,0,0,1,437.15,153.123Z"/><path class="h" d="M441.215,129.026a2.582,2.582,0,1,1-2.581-2.581A2.582,2.582,0,0,1,441.215,129.026Z"/><circle class="h" cx="438.783" cy="166.485" r="1.825"/><path class="h" d="M427.634,144.241a1.826,1.826,0,1,1-1.826-1.825A1.827,1.827,0,0,1,427.634,144.241Z"/><path class="h" d="M427.942,161.31a1.826,1.826,0,1,1-1.825-1.826A1.825,1.825,0,0,1,427.942,161.31Z"/><path class="h" d="M439.539,179.4a1.291,1.291,0,1,1-1.29-1.291A1.291,1.291,0,0,1,439.539,179.4Z"/><path class="h" d="M445.741,136.027a1.291,1.291,0,1,1-1.291-1.291A1.291,1.291,0,0,1,445.741,136.027Z"/><path class="h" d="M425.582,122.739a1.291,1.291,0,1,1-1.291-1.29A1.291,1.291,0,0,1,425.582,122.739Z"/><circle class="h" cx="434.226" cy="140.59" r="1.825"/><path class="h" d="M75.346,52.475a2.582,2.582,0,1,0,2.582-2.581A2.582,2.582,0,0,0,75.346,52.475Z"/><path class="h" d="M72.764,32.621a2.582,2.582,0,1,0,2.582-2.582A2.582,2.582,0,0,0,72.764,32.621Z"/><path class="h" d="M68.7,8.524a2.582,2.582,0,1,0,2.582-2.582A2.582,2.582,0,0,0,68.7,8.524Z"/><circle class="h" cx="71.131" cy="45.982" r="1.825"/><circle class="h" cx="84.106" cy="23.739" r="1.826"/><path class="h" d="M81.972,40.808A1.826,1.826,0,1,0,83.8,38.982,1.825,1.825,0,0,0,81.972,40.808Z"/><path class="h" d="M70.375,58.9A1.291,1.291,0,1,0,71.666,57.6,1.291,1.291,0,0,0,70.375,58.9Z"/><circle class="h" cx="65.464" cy="15.525" r="1.291"/><path class="h" d="M84.332,2.237A1.291,1.291,0,1,0,85.623.947,1.291,1.291,0,0,0,84.332,2.237Z"/><circle class="h" cx="75.688" cy="20.088" r="1.825"/><circle class="h" cx="664.95" cy="148.124" r="2.538"/><circle class="h" cx="674.914" cy="137.972" r="2.538"/><path class="h" d="M678.722,117.908a2.539,2.539,0,1,1-2.539-2.538A2.539,2.539,0,0,1,678.722,117.908Z"/><circle class="h" cx="673.645" cy="94.752" r="2.538"/><path class="h" d="M669.283,127.134a1.795,1.795,0,1,1-1.795-1.8A1.795,1.795,0,0,1,669.283,127.134Z"/><path class="h" d="M661.413,117.908a1.795,1.795,0,1,1-1.794-1.8A1.794,1.794,0,0,1,661.413,117.908Z"/><path class="h" d="M660.448,136.177a1.795,1.795,0,1,1-1.795-1.795A1.8,1.8,0,0,1,660.448,136.177Z"/><path class="h" d="M674.914,153.217a1.269,1.269,0,1,1-1.269-1.269A1.269,1.269,0,0,1,674.914,153.217Z"/><path class="h" d="M671.821,110.257a1.269,1.269,0,1,1-1.269-1.269A1.27,1.27,0,0,1,671.821,110.257Z"/><path class="h" d="M663.681,89.351a1.269,1.269,0,1,1-1.269-1.269A1.269,1.269,0,0,1,663.681,89.351Z"/><path class="h" d="M663.208,102.015a1.795,1.795,0,1,1-1.795-1.8A1.795,1.795,0,0,1,663.208,102.015Z"/></svg>