<svg xmlns="http://www.w3.org/2000/svg" viewBox="0 0 750 182.122"><defs><style>.a{fill:#005085;}.b{fill:none;stroke:#005085;stroke-linecap:round;stroke-linejoin:round;stroke-width:2px;}.c{fill:#f8f8f8;}</style></defs><path class="a" d="M768.8,190.29,762.4,35.535c-7.792-.225-15.718-.435-23.243,1.6S724.424,43.83,721.2,50.93c-5.018,11.06-.222,26.745-12.186,33.046a17.751,17.751,0,0,1-4.776,1.636C693.4,87.8,682.5,84.705,672.009,81.637c-9.65-2.82-19.627-5.679-29.606-4.456s-20.044,7.634-22.3,17.43c-1.5,6.507.586,13.435-1.87,19.892a11.09,11.09,0,0,1-3.8,5.049c-5.979,4.34-10.368-1.156-15.663-1.377-6.567-.275-10.6,7.33-11.185,13.877s.425,13.671-3.059,19.245c-4.4,7.037-14.331,8.493-22.337,6.315s-14.962-7.092-22.6-10.343-17-4.629-23.839.066c-4.834,3.319-7.428,8.988-11.42,13.284a26.945,26.945,0,0,1-31.014,5.534c-2.192-1.11-4.678-2.569-6.931-1.588-1.411.614-2.265,2.027-3.184,3.26a19.969,19.969,0,0,1-23.467,6.082c-4.846-2.182-9.53-6.47-14.672-5.127-3,.783-5.244,3.38-8.208,4.291-6.948,2.134-13.6-5.656-20.819-4.824-3.137.362-5.825,2.308-8.695,3.624l-.045.021a8.818,8.818,0,0,1-8.112-.514c-27.32-16.154-40.7-3.233-45.585-2.969-5.721.309-11.127,2.564-16.5,4.558-2.126.789-4.373,1.554-6.615,1.218-4.644-.7-7.331-5.633-11.439-7.906-10.337-5.717-24.444,7.118-34.327.647-2.35-1.538-3.96-3.947-5.852-6.024-4.665-5.122-11.87-8.391-18.609-6.788-4.766,1.134-8.658,4.449-12.943,6.823s-9.869,3.74-13.9.958c-3.5-2.41-4.687-7.177-8.064-9.751-7.487-5.706-19.191,2.927-27.418-1.649-6.41-3.565-6.557-12.462-8.74-19.464-4.851-15.559-25.03-24.451-39.617-16.443a14.1,14.1,0,0,1-7.487,1.927c-8.146-.439-7.13-8.369-10.989-12.59-6.349-6.943-19.211,1.014-26.963-4.318-5.095-3.5-5.3-10.909-4.251-17s2.757-12.721-.162-18.173c-3.355-6.264-11.346-8.2-18.432-8.745s-14.791-.531-20.4-4.893c-6.4-4.975-7.91-13.951-12.589-20.568C20.817,19.637,4.35,16.844-6.211,24.371L-6,189.529H368.362a5.989,5.989,0,0,0,.565.761Z"/><path class="a" d="M48.152,58.654a36.87,36.87,0,0,1,1.638-8.393,12.381,12.381,0,0,1,5.14-6.64c1.917-1.106,4.152-1.481,6.282-2.079a30.04,30.04,0,0,0,16.9-12.43,15.5,15.5,0,0,0,2.713-7,7.99,7.99,0,0,0-2.567-6.829,8.236,8.236,0,0,0-7.423-1.185A11.535,11.535,0,0,0,62.9,22.58c-.59,2.744-.143,5.623-.668,8.38a12.2,12.2,0,0,1-4.859,7.572A5.233,5.233,0,0,1,54.5,39.657a2.5,2.5,0,0,1-2.452-1.576,3.368,3.368,0,0,1,.471-2.469c1.457-2.792,3.922-4.957,5.381-7.748a12.615,12.615,0,0,0,1.419-6.241c-.062-1.8-.659-3.774-2.231-4.644-1.734-.961-3.949-.183-5.513,1.037a11.293,11.293,0,0,0-4.129,10.407c.411,2.673,1.794,5.381.947,7.949a2.961,2.961,0,0,1-.752,1.262,2.794,2.794,0,0,1-3.739-.366,5.909,5.909,0,0,1-1.38-3.831c-.263-4.431,1.554-8.679,3.041-12.861a52.279,52.279,0,0,0,2.18-7.693,16.309,16.309,0,0,0,.239-5.847,7.8,7.8,0,0,0-2.86-4.979C42.208-.086,37.8.87,35.276,3.458s-3.469,6.36-3.592,9.976a27.633,27.633,0,0,0,1.324,9.424A63.473,63.473,0,0,0,38.368,33.9c1.988,3.583,3.895,7.288,4.693,11.307s.366,8.448-2.013,11.784c.792.646,2.087.651,3.075.909C45.656,58.3,46.62,58.254,48.152,58.654Z"/><path class="a" d="M713.025,63.078a7.8,7.8,0,0,0-1.431-5.012c-1.148-1.352-3.444-1.841-4.694-.584a4.108,4.108,0,0,0-.913,1.7,11.463,11.463,0,0,0-.389,5.264c.337,2.1,1.262,4.134,1.131,6.257-.1,1.695-1.237,3.549-2.935,3.581a3.139,3.139,0,0,1-2.809-2.3,7.955,7.955,0,0,1,0-3.852c.395-2.182.974-4.326,1.553-6.467,1.528-5.653,3.07-11.346,5.621-16.617A28.854,28.854,0,0,0,710.694,39a6.444,6.444,0,0,0-.776-5.243c-1.418-1.907-4.229-2.373-6.466-1.571a11.423,11.423,0,0,0-5.3,4.586,27.506,27.506,0,0,0-4.423,16.186,41.875,41.875,0,0,0,4.192,16.411,4.418,4.418,0,0,1,.628,2.536c-.15.872-1.15,1.637-1.921,1.2a1.82,1.82,0,0,1-.609-.667c-1.59-2.6-1.323-5.871-1.807-8.879a17.272,17.272,0,0,0-1.381-4.514,8.646,8.646,0,0,0-2.276-3.16,4.361,4.361,0,0,0-3.666-.976c-1.77.427-2.915,2.182-3.419,3.932A10.771,10.771,0,0,0,684.53,67.2c2.806,4.749,8.836,6.7,12.071,11.166.482.666.859,1.685.239,2.224a1.478,1.478,0,0,1-1.427.127c-1.957-.649-3.019-2.682-4.249-4.336a15.5,15.5,0,0,0-4.069-3.8c-1.481-.951-3.62-1.571-4.86-.321a2.89,2.89,0,0,0-.456,3.054,6.15,6.15,0,0,0,2.076,2.474,14.751,14.751,0,0,0,5.022,2.524,43,43,0,0,1,5.186,1.35c1.648.7,5.684,7.09,5.8,8.875l3.087-1.69c-1-4.641-.227-9.993,3.271-13.2,1.121-1.028,2.468-1.793,3.554-2.859C712.282,70.326,713.076,66.585,713.025,63.078Z"/><path class="a" d="M303.168,125.783c-1.335-2.456-3.921-4.433-6.709-4.234a8.154,8.154,0,0,0-5.605,3.51A14.711,14.711,0,0,0,288.2,136.85c.762,3.6,2.854,6.772,3.973,10.276s.968,7.915-1.94,10.167a3.561,3.561,0,0,1-3.94.528,3.814,3.814,0,0,1-1.379-3.612c.117-1.352.589-2.657.661-4.012a6.957,6.957,0,0,0-2.912-5.957c-1.077-.752-2.8-1.054-3.524.045-.546.834-.154,1.939.248,2.851l2.739,6.2a2.6,2.6,0,0,1,.326,1.633,1.693,1.693,0,0,1-1.933,1.084,3.58,3.58,0,0,1-2-1.3c-3.518-4.038-2.661-10.525-5.923-14.772a5.258,5.258,0,0,0-2.6-1.954,2.878,2.878,0,0,0-3.014.813,3.686,3.686,0,0,0-.663,2c-.367,4.188,2.1,8.09,4.858,11.261s5.981,6.084,7.685,9.927a7.863,7.863,0,0,1,.784,4.169,4.1,4.1,0,0,1-2.393,3.321l8.318,3.753a11,11,0,0,1,3.09-10.079,29.925,29.925,0,0,1,4.565-3.217c5.162-3.347,9.644-8.157,11.291-14.085,1.078-3.88.89-7.989.552-12C304.831,131.1,304.5,128.239,303.168,125.783Z"/><path class="b" d="M632.02,90.6c-3.274-1.9-6.6-4.14-8.265-7.537a13.97,13.97,0,0,1-.653-9.532,34.515,34.515,0,0,1,4.018-8.855c.852-1.446,1.76-2.983,1.708-4.661-.068-2.2-1.759-3.988-3.474-5.369s-3.644-2.685-4.552-4.691c-1.324-2.921-.057-6.352,1.591-9.1s3.735-5.409,4.168-8.587c.583-4.291-1.97-8.3-3.153-12.467-.679-2.388-.915-4.9-1.808-7.218s-2.661-4.517-5.1-4.98"/><path class="b" d="M631.725,90.651a6.079,6.079,0,0,1-4.191-5.964,7.778,7.778,0,0,1,4.045-6.334c2.487-1.4,5.729-1.686,7.507-3.92,1.809-2.275,1.407-5.8,3.346-7.965,2.819-3.148,8.737-1.542,11.454-4.779a6.393,6.393,0,0,0,1.271-2.893,10.833,10.833,0,0,0-1.64-8.112"/><path class="b" d="M626.856,87.018a13.165,13.165,0,0,0-4.542-3.646,7.39,7.39,0,0,0-5.5.427,16.589,16.589,0,0,0-3.759,2.167,36.773,36.773,0,0,1-3.03,2.339,15.143,15.143,0,0,1-5.1,1.726,12.317,12.317,0,0,1-5.583.124,13.726,13.726,0,0,1-3.2-1.509l-3.476-2.02"/><path class="b" d="M622.75,75.211a5.789,5.789,0,0,0-1.974-3.031c-1.659-1.337-3.776-1.932-5.7-2.855-2.276-1.095-4.442-2.878-5.013-5.339-.584-2.515.606-5.242-.2-7.694-.712-2.155-2.825-3.564-4.986-4.257s-4.46-.836-6.659-1.4a7.687,7.687,0,0,1-4.28-2.424c-1.794-2.3-1.208-5.66-2.393-8.322a8.322,8.322,0,0,0-4.083-3.962,16.071,16.071,0,0,0-5.617-1.354"/><path class="b" d="M624.661,68.96A3.563,3.563,0,0,1,627,66.989c1-.331,2.071-.412,3.1-.67a9.426,9.426,0,0,0,6.893-8.025,27.208,27.208,0,0,1,.286-3.913,7.83,7.83,0,0,1,1.678-3.072,13.8,13.8,0,0,1,7.739-4.651c2.258-.469,4.6-.361,6.877-.7s4.648-1.225,5.938-3.137a7.1,7.1,0,0,0,1.026-2.623c.813-4.16-1.09-8.519-4.114-11.488"/><path class="b" d="M622.634,80.224a5.507,5.507,0,0,0-3.041-2.751,12.515,12.515,0,0,0-4.116-.754,14.46,14.46,0,0,0-5.016.461c-1.694.529-3.193,1.542-4.833,2.219a13.011,13.011,0,0,1-6.342.9c-2.312-.255-4.753-1.337-5.678-3.471-.675-1.557-.415-3.333-.334-5.027a8.242,8.242,0,0,0-.738-4.351,8.513,8.513,0,0,0-3.111-2.936,11.959,11.959,0,0,0-7.273-2.216"/><path class="b" d="M641.649,48.655a7.072,7.072,0,0,0,1.326-2.729,7.823,7.823,0,0,0-.259-5.47c-.833-1.7-2.452-2.852-3.952-4.01-2.211-1.707-4.383-3.711-5.253-6.367a12.943,12.943,0,0,1-.525-3.846c-.055-3.523.547-7.263,2.838-9.94"/><path class="b" d="M646.489,46.578a6.04,6.04,0,0,0,2.663-1.839,8.132,8.132,0,0,0,2.288-5.12c.076-2.953-1.936-5.5-2.922-8.285A12.524,12.524,0,0,1,650.636,19.4"/><path class="b" d="M619.66,46.169a17.2,17.2,0,0,1-4.725-.392,12,12,0,0,1-4.117-1.256,10.216,10.216,0,0,1-2.119-1.81,9.746,9.746,0,0,1-2.2-3.165c-.829-2.2-.224-4.713-.888-6.969a8.576,8.576,0,0,0-1.708-3.02,12.977,12.977,0,0,0-8.3-4.5"/><path class="b" d="M595.841,79.45c-2.253,1.083-4.727,2.1-7.185,1.637-2.4-.448-4.328-2.229-5.8-4.172a6.137,6.137,0,0,0-2.36-2.266"/><path class="b" d="M614.63,69.422a34.355,34.355,0,0,1-5.566,1.9,9.884,9.884,0,0,1-3.48.373c-2.121-.245-3.912-1.628-5.581-2.958"/><path class="b" d="M610.083,64.862a12.822,12.822,0,0,1-9.118-3.913c-.853-.892-1.576-1.91-2.5-2.726a11.7,11.7,0,0,0-6.424-2.527c-2.321-.277-4.67-.167-7-.308"/><path class="b" d="M599.831,51.142a7.887,7.887,0,0,0,2.069-9.088,19.477,19.477,0,0,0-3.8-4.8c-1.393-1.505-2.712-3.255-2.9-5.3"/><path class="b" d="M619.005,70.545c1-1.86,1.468-4.286.231-6a13.981,13.981,0,0,0-2.688-2.252,10.042,10.042,0,0,1-3.077-5.016,25.589,25.589,0,0,1-.8-5.9"/><path class="b" d="M617.3,50.559a26.233,26.233,0,0,1,1.659,4.174,7.056,7.056,0,0,1,.38,3.213,4.155,4.155,0,0,1-2.936,3.225"/><path class="b" d="M593.152,48.06a14.179,14.179,0,0,1-3.677.715,4.79,4.79,0,0,1-3.454-1.21c-.895-.883-1.26-2.17-2.015-3.176a5.012,5.012,0,0,0-4.2-1.961"/><path class="b" d="M606.592,37.9a4.44,4.44,0,0,0,2.885-2.024,6.682,6.682,0,0,0,1.567-4.963c-.276-1.583-1.392-2.864-2.213-4.245a12.374,12.374,0,0,1-1.661-5"/><path class="b" d="M621.4,41.882c-2.466-1.182-5-2.469-6.675-4.631"/><path class="b" d="M624.366,36.636A7.741,7.741,0,0,1,618.2,32.5a10.776,10.776,0,0,1-.8-7.542A43.047,43.047,0,0,0,618.77,19.8c.194-1.772-.351-3.8-1.911-4.666"/><path class="b" d="M612.61,17.47l.63,2.683a20.2,20.2,0,0,0,.982,3.317,10.118,10.118,0,0,0,2.336,3.364"/><path class="b" d="M627.993,56.764a4.36,4.36,0,0,0,3.249-2.789,5.251,5.251,0,0,0-.419-4.327c-1.062-1.879-3.138-3.116-3.859-5.15-.777-2.191.254-4.571,1.264-6.665"/><path class="b" d="M633.943,37.939A8.488,8.488,0,0,1,630.5,48.251"/><path class="b" d="M648.478,64.04a8.737,8.737,0,0,0,.375-10.844"/><path class="b" d="M632.794,77.237a9.033,9.033,0,0,1-.69-6.258"/><path class="b" d="M649.3,33.73a4.974,4.974,0,0,1-3.322-.229,9.054,9.054,0,0,1-4.022-3.031,13.624,13.624,0,0,1-2.239-8.2"/><path class="b" d="M647.513,26.345a12.3,12.3,0,0,1-3.67-5.936"/><path class="b" d="M660.562,37.9a7.908,7.908,0,0,1-5.444-2.407"/><path class="b" d="M642.229,66.417a5.051,5.051,0,0,0-.592-3.66,13.333,13.333,0,0,1-.968-1.559,3.834,3.834,0,0,1-.094-2.442,11.38,11.38,0,0,1,.96-2.29"/><path class="b" d="M585.231,79.3a7.388,7.388,0,0,0,.246-8.727"/><path class="b" d="M606.071,89.583A21.658,21.658,0,0,0,598.926,85"/><path class="b" d="M632.812,25.336c-1.922-.594-3.223-2.385-4.08-4.2A18.649,18.649,0,0,1,627,14.5"/><path class="b" d="M604.549,30.673a8.082,8.082,0,0,1-3.382.011,15.934,15.934,0,0,1-1.655-.476"/><path class="b" d="M608.455,55.343a1.655,1.655,0,0,1-1.01.652,19.961,19.961,0,0,1-5.983.958"/><path class="b" d="M598.15,58.411a20.628,20.628,0,0,1-2.653,2.017,6.894,6.894,0,0,1-3.13,1.058c-.5.029-1.106.032-1.376.458"/><path class="b" d="M608.4,77.135a5.449,5.449,0,0,0-3.485-.778,14.739,14.739,0,0,1-3.63-.023,6.115,6.115,0,0,1-2.11-.914,7.522,7.522,0,0,1-2.518-2.823"/><path class="b" d="M606.31,71.128a4.166,4.166,0,0,0,.583-2.957"/><path class="a" d="M152.5,100.249c.278-2.469-6.864-5.3-15.951-6.324s-16.68.147-16.958,2.616a1.544,1.544,0,0,0,.277,1c.661,1.839,2.814,5.828,9.5,8.562a4.684,4.684,0,0,1,2.865,3.646l.807,5.489,1.095.123,1.095.123,2.008-5.171a4.682,4.682,0,0,1,3.6-2.917c7.127-1.178,10.113-4.588,11.166-6.234A1.547,1.547,0,0,0,152.5,100.249Z"/><path class="b" d="M120.625,97.888A10.39,10.39,0,0,1,120.8,86.9c1.834-2.753,5.006-4.62,6.1-7.742.746-2.129.379-4.468,0-6.693"/><path class="b" d="M151.135,101.326a10.394,10.394,0,0,0,2.278-10.751c-1.175-3.092-3.852-5.618-4.224-8.905-.254-2.242.624-4.441,1.486-6.527"/><path class="b" d="M124.3,96.3a14.312,14.312,0,0,1-1.207-3.563,5.756,5.756,0,0,1,.5-3.67c.874-1.6,2.62-2.482,3.925-3.752A8.508,8.508,0,0,0,130,80.4"/><path class="b" d="M129.642,96.49c-.751-1.7-1.513-3.62-.886-5.374.55-1.542,2.023-2.52,3.15-3.707a9.864,9.864,0,0,0,1.922-2.93c1.237-2.915,1-6.217.744-9.374"/><path class="b" d="M147.737,98.942a14.323,14.323,0,0,0,1.969-3.2,5.754,5.754,0,0,0,.328-3.69c-.5-1.752-2-3-2.992-4.531a8.514,8.514,0,0,1-1.322-5.345"/><path class="b" d="M142.486,97.937c1.111-1.5,2.28-3.193,2.06-5.042-.194-1.626-1.412-2.907-2.247-4.316a9.865,9.865,0,0,1-1.222-3.283c-.558-3.118.407-6.284,1.36-9.3"/><path class="b" d="M137.63,79.126a16.336,16.336,0,0,1-.27,6.533c-.423,1.309-1.169,2.489-1.672,3.769a10.842,10.842,0,0,0-.318,6.919"/><path class="a" d="M462.791,160.639c-.17-2.479-7.7-3.984-16.827-3.361s-16.383,3.137-16.213,5.616a1.547,1.547,0,0,0,.451.932c.981,1.69,3.813,5.228,10.881,6.719a4.681,4.681,0,0,1,3.472,3.073l1.779,5.255,1.1-.075,1.1-.075,1.049-5.448a4.679,4.679,0,0,1,3.022-3.516c6.8-2.437,9.125-6.327,9.867-8.136A1.549,1.549,0,0,0,462.791,160.639Z"/><path class="b" d="M431.014,164.032a10.389,10.389,0,0,1-1.8-10.84c1.31-3.038,4.1-5.443,4.612-8.71.352-2.229-.428-4.465-1.2-6.586"/><path class="b" d="M461.646,161.942a10.392,10.392,0,0,0,.313-10.985c-1.711-2.831-4.8-4.836-5.753-8-.652-2.16-.182-4.481.291-6.687"/><path class="b" d="M434.344,161.812a14.319,14.319,0,0,1-1.826-3.288,5.749,5.749,0,0,1-.165-3.7c.572-1.729,2.131-2.912,3.188-4.4a8.507,8.507,0,0,0,1.556-5.281"/><path class="b" d="M439.634,161.04c-1.044-1.543-2.138-3.29-1.836-5.129.266-1.615,1.539-2.841,2.435-4.212a9.857,9.857,0,0,0,1.365-3.227c.695-3.089-.13-6.3-.949-9.354"/><path class="b" d="M457.876,160.206a14.379,14.379,0,0,0,1.362-3.506,5.759,5.759,0,0,0-.339-3.689c-.8-1.635-2.508-2.595-3.756-3.921a8.509,8.509,0,0,1-2.26-5.021"/><path class="b" d="M452.53,160.16c.825-1.67,1.67-3.55,1.121-5.331-.482-1.564-1.91-2.606-2.984-3.842a9.867,9.867,0,0,1-1.791-3.011c-1.108-2.967-.727-6.255-.33-9.4"/><path class="b" d="M444.378,142.524a16.321,16.321,0,0,1,.906,6.476c-.181,1.363-.7,2.658-.968,4.008a10.835,10.835,0,0,0,.928,6.864"/><path class="a" d="M225.555,173.976a30.109,30.109,0,0,1-7.3-10.509,28.631,28.631,0,0,1-1.763-6.374,23.951,23.951,0,0,1-.041-6.728,33.951,33.951,0,0,1,4.347-12.541,122.707,122.707,0,0,1,6.951-10.721c1.2-1.7,2.356-3.4,3.455-5.114.565-.849,1.064-1.717,1.6-2.575.474-.876.985-1.744,1.429-2.627a38.788,38.788,0,0,0,2.29-5.439c.288-.941.585-1.886.8-2.851l.346-1.448.261-1.468a42.3,42.3,0,0,0-3.257-23.927,35.294,35.294,0,0,1,7.133,24.373,36.02,36.02,0,0,1-3.305,12.824,73.219,73.219,0,0,1-6.651,11.1c-2.417,3.462-4.879,6.787-6.956,10.231A35.083,35.083,0,0,0,220.287,151a25.129,25.129,0,0,0,.288,11.707A37.6,37.6,0,0,0,225.555,173.976Z"/><path class="a" d="M227.012,173.542a32.618,32.618,0,0,1-14.128-16.72,28.675,28.675,0,0,1-1.864-11.36,28.254,28.254,0,0,1,.841-5.784,46.928,46.928,0,0,1,1.775-5.383c1.365-3.444,2.916-6.645,4.117-9.845a38.912,38.912,0,0,0,2.335-9.852A36.646,36.646,0,0,0,216.5,94.289a26.741,26.741,0,0,1,5.652,9.423,33.544,33.544,0,0,1,1.866,11.078A36.655,36.655,0,0,1,222.234,126c-1.155,3.588-2.684,6.887-3.946,10.122a33.254,33.254,0,0,0-2.547,9.641,28.468,28.468,0,0,0,.875,9.868A41.2,41.2,0,0,0,227.012,173.542Z"/><path class="a" d="M224.707,172.956a28.508,28.508,0,0,1-5.418-9.295,16.31,16.31,0,0,1-.6-5.684,19.954,19.954,0,0,1,1.264-5.579,31.425,31.425,0,0,1,5.92-9.437c2.383-2.751,4.95-5.161,7.292-7.621A75.125,75.125,0,0,0,245.385,119.3a42.4,42.4,0,0,0,5.361-19.53,28.2,28.2,0,0,1,.881,10.659,38.387,38.387,0,0,1-2.685,10.546A57.928,57.928,0,0,1,236.766,138.8c-4.973,5.151-10.345,9.382-13.22,15.152a15.916,15.916,0,0,0-1.867,9.2C222.009,166.418,223.447,169.664,224.707,172.956Z"/><path class="a" d="M224.234,172.44a30.063,30.063,0,0,1-12.7-10.551,34.09,34.09,0,0,1-5.963-15.858c-.623-5.562-.364-10.724-2.114-15.222a22.711,22.711,0,0,0-9.864-11.36,18.845,18.845,0,0,1,13.423,9.689,24.9,24.9,0,0,1,2.628,8.292c.436,2.783.591,5.479.893,8.029a40.973,40.973,0,0,0,4.346,14.4A49.02,49.02,0,0,0,224.234,172.44Z"/><path class="a" d="M223.852,170.89a10.154,10.154,0,0,1-2.375-5.249,15.7,15.7,0,0,1-.189-2.937,18.306,18.306,0,0,1,.449-2.923,20.621,20.621,0,0,1,2.118-5.466,24.858,24.858,0,0,1,3.329-4.721,31.632,31.632,0,0,1,8.834-6.963,32,32,0,0,1,10.435-3.511c-2.88,2.305-5.7,4.4-8.323,6.636a59,59,0,0,0-7.175,7.073c-.555.614-1.006,1.293-1.528,1.924l-.691,1c-.238.331-.466.664-.667,1.012a25.618,25.618,0,0,0-2.192,4.273c-.312.74-.536,1.494-.783,2.267s-.478,1.567-.659,2.376A21.433,21.433,0,0,0,223.852,170.89Z"/><path class="a" d="M367.877,127.675a16.746,16.746,0,0,0-3.974-5.349c-1.184-1.062-2.521-1.956-3.61-3.116a5.838,5.838,0,0,1-1.813-4.267c.21-2.784,3.132-4.537,4.213-7.112,1.391-3.314-.566-7.073-2.9-9.808s-5.209-5.277-6.088-8.762c-.915-3.63.869-7.79,3.492-10.461-3.013,1.65-6.1,3.357-8.321,5.973s-3.438,6.382-2.133,9.558c1.171,2.851,4.014,4.6,5.99,6.963a6.16,6.16,0,0,1,1.7,4.829c-.5,2.768-3.7,4.275-4.639,6.928-.848,2.405.426,5.079,2.171,6.939s3.963,3.24,5.642,5.16,2.766,4.723,1.67,7.027c-1.266,2.662-4.964,3.73-5.713,6.582-.694,2.639,1.548,5.079,3.676,6.787s4.578,3.747,4.477,6.474c-.118,3.178-3.572,5.055-5.163,7.809a7.2,7.2,0,0,0,6.041,10.794l2.873.468c-2.157-.664-3.318-3.179-3.11-5.426a12.281,12.281,0,0,1,2.831-6.05c1.365-1.8,2.957-3.8,2.663-6.039-.344-2.623-3.077-4.2-4.316-6.542-1.369-2.586-.7-5.905,1.051-8.253,1.368-1.838,3.374-3.3,4.047-5.494A7.961,7.961,0,0,0,367.877,127.675Z"/><path class="a" d="M346.67,136.987a13.35,13.35,0,0,0-4.8-3.072,28.315,28.315,0,0,1-3.914-1.442c-1.19-.676-2.375-1.484-2.557-2.914-.32-2.508,1.932-4.019,2.611-6.284.874-2.917-.721-5.309-2.516-7.668s-3.722-4.351-3.928-7.661a11.69,11.69,0,0,1,3.719-8.841c-2.745,1.329-5.523,2.376-7.72,4.665s-3.569,5.322-2.724,8.442c.758,2.8,3.011,4.317,4.517,6.575a6.008,6.008,0,0,1,1.3,4.141c-.291,2.517-2.74,4.3-2.95,6.818s1.375,4.272,3.38,5.484,4.262,1.716,6.326,2.821a5.951,5.951,0,0,1,3.491,5.407c-.133,2.75-2.7,4.845-2.043,7.6s3.259,3.524,5.7,3.934,5.374.149,7.277,1.857c2.219,1.99,1.835,4.847,3.2,7.416a6.882,6.882,0,0,0,5.174,3.952c2.411.283,4.059-.684,5.769-2.352.5-.489,1.275-1.316,1.84-1.821-1.913,1.122-3.689.477-5.3-.787a10.5,10.5,0,0,1-3.15-4.78c-.684-1.784-.888-3.485-2.608-4.548-2.011-1.244-4.441-.288-6.755-1.14s-3.282-3.376-2.7-5.832c.452-1.923,1.674-3.64,1.562-5.689A6.57,6.57,0,0,0,346.67,136.987Z"/><path class="a" d="M372.041,140.488a10.925,10.925,0,0,1,3.741-2.779,23.322,23.322,0,0,0,3.111-1.4,3.456,3.456,0,0,0,1.92-2.523c.118-2.065-1.805-3.168-2.488-4.978-.879-2.33.285-4.373,1.616-6.4s2.788-3.761,2.768-6.474a9.563,9.563,0,0,0-3.538-7c2.315.927,4.642,1.623,6.565,3.366s3.215,4.138,2.7,6.733c-.459,2.328-2.211,3.694-3.311,5.621a4.911,4.911,0,0,0-.827,3.453c.381,2.037,2.48,3.349,2.8,5.394s-.878,3.564-2.445,4.667-3.38,1.643-5,2.663a4.867,4.867,0,0,0-2.541,4.61c.265,2.236,2.481,3.8,2.1,6.089s-2.458,3.06-4.424,3.534-4.376.428-5.832,1.929c-1.7,1.75-1.221,4.06-2.192,6.234a5.629,5.629,0,0,1-4,3.519c-1.951.368-3.351-.327-4.841-1.59-.437-.371-1.115-1-1.605-1.382,1.625.807,3.037.18,4.282-.944a8.573,8.573,0,0,0,2.3-4.079c.457-1.494.526-2.894,1.868-3.859,1.571-1.13,3.608-.488,5.447-1.315a3.92,3.92,0,0,0,1.874-4.912c-.479-1.544-1.573-2.875-1.6-4.553A5.382,5.382,0,0,1,372.041,140.488Z"/><path class="a" d="M302.137,82.119a51.676,51.676,0,0,0-19.653,4.013,44.542,44.542,0,0,0-17.526,13.241,5.36,5.36,0,0,1-2.106,1.9c-.57.216-1.2.217-1.782.4a1.441,1.441,0,0,0-1.125,1.273,3.542,3.542,0,0,0,2.377,1.372,10.268,10.268,0,0,1,2.671.559,8.761,8.761,0,0,1,2.6,2.413,14.569,14.569,0,0,0,8.059,4.578c1.938.373,3.967.353,5.816,1.042,1.055.393,2.013,1,3.04,1.466a11.862,11.862,0,0,0,6.126,1.214,13.816,13.816,0,0,1-2.677-3.4,6.311,6.311,0,0,1-.685-4.2,13.7,13.7,0,0,1,1.284-3,19.308,19.308,0,0,1,3.592.577,7.169,7.169,0,0,1,1.069.366,10.9,10.9,0,0,1,1.671.914.527.527,0,0,0,.8-.608,9.42,9.42,0,0,1-.615-3.171,8.691,8.691,0,0,1,.247-1.918,12.868,12.868,0,0,1,2.775-5.45.534.534,0,0,0-.484-.883,15.66,15.66,0,0,0-5.119,2.132,42.46,42.46,0,0,1-4.331,2.4c-.167-.256-.333-.513-.483-.775a7.286,7.286,0,0,1-.946-4.743A9.042,9.042,0,0,1,287.784,91a10.306,10.306,0,0,1,2.672-3.279,15.159,15.159,0,0,1,2.913-1.623,51.326,51.326,0,0,1,8.825-3.574A.206.206,0,0,0,302.137,82.119Z"/><path class="a" d="M678.909,0a40.584,40.584,0,0,1,15.44,3.153,34.993,34.993,0,0,1,13.769,10.4,4.207,4.207,0,0,0,1.655,1.5c.448.17.944.171,1.4.317a1.131,1.131,0,0,1,.883,1,2.778,2.778,0,0,1-1.867,1.078,8.071,8.071,0,0,0-2.1.439,6.886,6.886,0,0,0-2.044,1.9,11.448,11.448,0,0,1-6.331,3.6,28.063,28.063,0,0,0-4.57.818c-.828.309-1.581.79-2.388,1.152a9.322,9.322,0,0,1-4.813.954,10.85,10.85,0,0,0,2.1-2.672,4.957,4.957,0,0,0,.539-3.3,10.774,10.774,0,0,0-1.009-2.355,15.132,15.132,0,0,0-2.822.453,5.546,5.546,0,0,0-.84.287,8.452,8.452,0,0,0-1.313.719.414.414,0,0,1-.626-.479,7.373,7.373,0,0,0,.483-2.491,6.779,6.779,0,0,0-.194-1.506,10.1,10.1,0,0,0-2.18-4.282.42.42,0,0,1,.38-.694,12.308,12.308,0,0,1,4.022,1.675,33.293,33.293,0,0,0,3.4,1.887c.131-.2.261-.4.379-.609a5.715,5.715,0,0,0,.743-3.726,7.083,7.083,0,0,0-.828-2.231,8.084,8.084,0,0,0-2.1-2.576A11.981,11.981,0,0,0,685.8,3.125,40.489,40.489,0,0,0,678.864.317.162.162,0,0,1,678.909,0Z"/><path class="a" d="M582.868,125.546c-1.648-6.048-7.537-10.492-13.779-11.07s-12.546,2.41-16.607,7.186A17.728,17.728,0,0,0,548,134.553c.475,4.917,3.444,9.233,6.738,12.915s7.038,7.023,9.64,11.222a10.243,10.243,0,0,1,1.848,5.506l14.8-5.734c-1.153-4.461-.619-9.179.24-13.706s2.041-9.027,2.169-13.633A19.16,19.16,0,0,0,582.868,125.546Z"/><path class="a" d="M555.25,156.47c-4.072-2.766-8.044-6.191-9.614-10.856-2.123-6.3.488-13.848-2.973-19.527a12.625,12.625,0,0,0-6.29-5.016,12.956,12.956,0,0,0-11.671.9,9.943,9.943,0,0,0-4.214,6.5,1.377,1.377,0,0,0,2.338,1.214,22.427,22.427,0,0,1,2.238-2,7.851,7.851,0,0,1,5.76-1.763c3.03.385,5.462,2.885,6.615,5.714s1.253,5.963,1.272,9.018-.019,6.168.89,9.085c1.45,4.655,5.177,8.3,9.325,10.859l14.086-.286c-.354-.087-.7-.183-1.05-.295A26.91,26.91,0,0,1,555.25,156.47Z"/><path class="a" d="M563.012,160.3a11.487,11.487,0,0,0,6.431-.131Z"/><path class="a" d="M595.841,150.312c-.93-2.972-5.5-24.726-5-27.8.605-3.711,2.4-7.418,5.919-9.124a6.869,6.869,0,0,1,7.413.7c1.712,1.419,2.214,3.308,2.382,5.426a1.093,1.093,0,0,0,2.046.442,8.042,8.042,0,0,0-.192-8.636,9.491,9.491,0,0,0-4.148-3.487c-4.131-1.79-8.853-.755-12.639,1.486-4.918,2.912-8.654,8.14-8.84,13.852-.112,3.462,1.029,6.822,1.971,10.155,1.862,6.589,2.973,13.677,1,20.234-.833,2.774-2.434,5.593-5.143,6.615"/><path class="a" d="M564.743,157.858l.893,2.905A8.714,8.714,0,0,0,564.743,157.858Z"/><path class="a" d="M562.544,150.7a20.6,20.6,0,0,0-6.669-7.273,37,37,0,0,1-4.454-2.986,9.909,9.909,0,0,1-3.07-8.99c.579-3.156,2.653-5.794,4.549-8.383s3.747-5.474,3.758-8.683c.01-2.881-1.481-5.558-3.243-7.836a13.684,13.684,0,0,0-3.059-3.046,10.086,10.086,0,0,0-8.691-1.009,11.214,11.214,0,0,0-3.394,1.826,1.078,1.078,0,0,0,.808,1.912,9.17,9.17,0,0,1,1.434-.056,13.235,13.235,0,0,1,5.648,1.671,8.931,8.931,0,0,1,3.139,2.513,7.579,7.579,0,0,1,1.232,4.931c-.29,4.4-3.187,8.127-5.7,11.752s-4.859,7.954-3.849,12.251c.87,3.7,4.068,6.43,7.454,8.17s7.11,2.771,10.427,4.638a14.407,14.407,0,0,1,5.883,5.756Z"/><path class="a" d="M565.787,125.063a5.72,5.72,0,0,0,2.179-5.006,10.079,10.079,0,0,0-2.352-4.918,17.822,17.822,0,0,1-2.953-4.639,7.831,7.831,0,0,1,.692-6.526,8.446,8.446,0,0,1,5.369-3.827,7.519,7.519,0,0,1,7.2,2.144,6.077,6.077,0,0,1,1.318,5.182.656.656,0,0,1-1.255.071,8.077,8.077,0,0,0-.844-1.714,4.607,4.607,0,0,0-3.18-2.12,3.7,3.7,0,0,0-3.468,1.434,4.408,4.408,0,0,0-.357,3.931,12.006,12.006,0,0,0,2.143,3.471,15.678,15.678,0,0,1,2.285,3.388A7.463,7.463,0,0,1,571.038,124"/><path class="c" d="M439.539,101.074a1.291,1.291,0,1,1-1.29-1.291A1.291,1.291,0,0,1,439.539,101.074Z"/><circle class="c" cx="664.95" cy="69.801" r="2.538"/><circle class="c" cx="674.914" cy="59.648" r="2.538"/><path class="c" d="M678.722,39.585a2.539,2.539,0,1,1-2.539-2.538A2.538,2.538,0,0,1,678.722,39.585Z"/><circle class="c" cx="673.645" cy="16.429" r="2.538"/><path class="c" d="M669.283,48.81a1.8,1.8,0,1,1-1.795-1.794A1.794,1.794,0,0,1,669.283,48.81Z"/><path class="c" d="M661.413,39.585a1.795,1.795,0,1,1-1.794-1.8A1.795,1.795,0,0,1,661.413,39.585Z"/><path class="c" d="M660.448,57.854a1.795,1.795,0,1,1-1.795-1.8A1.795,1.795,0,0,1,660.448,57.854Z"/><path class="c" d="M674.914,74.893a1.269,1.269,0,1,1-1.269-1.269A1.27,1.27,0,0,1,674.914,74.893Z"/><path class="c" d="M671.821,31.934a1.269,1.269,0,1,1-1.269-1.269A1.269,1.269,0,0,1,671.821,31.934Z"/><path class="c" d="M663.681,11.028a1.269,1.269,0,1,1-1.269-1.269A1.269,1.269,0,0,1,663.681,11.028Z"/><path class="c" d="M663.208,23.691a1.795,1.795,0,1,1-1.795-1.794A1.794,1.794,0,0,1,663.208,23.691Z"/></svg>